<svg xmlns="http://www.w3.org/2000/svg" width="16" height="16" viewBox="0 0 16 16" fill="none"><path d="M7.33333 0V2.00001H8.66667V0H7.33333ZM2.8151 1.8724L1.8724 2.81511L3.28646 4.22918L4.22917 3.28647L2.8151 1.8724ZM13.1849 1.8724L11.7708 3.28647L12.7135 4.22918L14.1276 2.81511L13.1849 1.8724ZM8 3.33334C5.43044 3.33334 3.33333 5.43046 3.33333 8.00002C3.33333 9.84522 4.43741 11.4015 6 12.1563V14C6 14.7287 6.60463 15.3334 7.33333 15.3334H8.66667C9.39538 15.3334 10 14.7287 10 14V12.1563C11.5626 11.4015 12.6667 9.84522 12.6667 8.00002C12.6667 5.43046 10.5696 3.33334 8 3.33334ZM8 4.66668C9.84911 4.66668 11.3333 6.15091 11.3333 8.00002C11.3333 9.45625 10.4036 10.6819 9.11068 11.1394L8.66667 11.2956V14H7.33333V11.2956L6.88932 11.1394C5.59644 10.6819 4.66667 9.45625 4.66667 8.00002C4.66667 6.15091 6.15089 4.66668 8 4.66668ZM0 7.33335V8.66669H2V7.33335H0ZM14 7.33335V8.66669H16V7.33335H14ZM3.28646 11.7709L1.8724 13.1849L2.8151 14.1276L4.22917 12.7136L3.28646 11.7709ZM12.7135 11.7709L11.7708 12.7136L13.1849 14.1276L14.1276 13.1849L12.7135 11.7709Z" fill="#FDFDFE"></path></svg>