<svg id="svg" xmlns="http://www.w3.org/2000/svg" xmlns:xlink="http://www.w3.org/1999/xlink" width="400" height="298.7951807228916" viewBox="0, 0, 400,298.7951807228916"><g id="svgg"><path id="path0" d="M216.867 7.229 C 216.867 11.245,221.151 14.458,226.506 14.458 C 231.861 14.458,236.145 11.245,236.145 7.229 C 236.145 3.213,231.861 0.000,226.506 0.000 C 221.151 0.000,216.867 3.213,216.867 7.229 M250.602 7.229 C 250.602 11.727,255.154 14.458,262.651 14.458 C 276.111 14.458,278.808 7.427,267.076 2.925 C 255.016 -1.702,250.602 -0.549,250.602 7.229 M181.657 7.901 C 176.633 12.926,182.997 19.277,193.056 19.277 C 198.200 19.277,202.410 16.024,202.410 12.048 C 202.410 4.900,187.615 1.943,181.657 7.901 M284.337 12.201 C 284.337 17.954,294.496 24.096,304.009 24.096 C 314.078 24.096,307.490 10.582,296.386 8.459 C 288.714 6.992,284.337 8.352,284.337 12.201 M152.610 17.671 C 145.597 24.684,149.699 32.754,159.036 30.312 C 164.337 28.926,168.675 24.791,168.675 21.125 C 168.675 14.238,158.278 12.003,152.610 17.671 M318.072 25.944 C 318.072 34.070,336.146 39.581,340.372 32.744 C 343.636 27.462,333.925 19.471,324.096 19.351 C 320.783 19.310,318.072 22.277,318.072 25.944 M120.522 33.608 C 114.934 37.141,114.620 39.439,119.113 43.932 C 123.606 48.426,126.547 48.339,132.326 43.543 C 146.725 31.593,136.853 23.283,120.522 33.608 M349.547 38.312 C 347.080 42.303,360.784 53.012,368.358 53.012 C 374.577 53.012,370.488 39.357,363.461 36.660 C 353.512 32.842,352.881 32.917,349.547 38.312 M94.167 54.686 C 87.772 59.362,86.899 62.176,91.047 64.740 C 97.024 68.433,110.843 59.834,110.843 52.422 C 110.843 46.335,104.390 47.211,94.167 54.686 M380.723 55.573 C 380.723 63.342,393.550 70.707,398.485 65.772 C 401.917 62.340,391.027 48.193,384.952 48.193 C 382.626 48.193,380.723 51.514,380.723 55.573 M67.373 79.635 C 64.020 83.674,62.774 88.477,64.605 90.307 C 68.624 94.327,83.016 85.893,85.657 77.969 C 88.402 69.733,74.543 70.995,67.373 79.635 M48.193 110.843 C 44.232 118.245,44.528 120.482,49.469 120.482 C 56.553 120.482,67.470 111.129,67.470 105.060 C 67.470 97.232,53.184 101.517,48.193 110.843 M36.948 133.333 C 35.181 135.100,33.735 140.703,33.735 145.783 C 33.735 158.282,45.374 153.830,47.323 140.586 C 48.814 130.454,43.525 126.756,36.948 133.333 M27.309 167.068 C 21.247 173.131,24.097 187.952,31.325 187.952 C 35.823 187.952,38.554 183.400,38.554 175.904 C 38.554 164.203,33.862 160.516,27.309 167.068 M24.096 202.015 C 24.096 204.449,22.780 209.871,21.171 214.064 C 19.252 219.066,20.908 221.687,25.990 221.687 C 31.038 221.687,33.735 217.492,33.735 209.639 C 33.735 203.012,31.566 197.590,28.916 197.590 C 26.265 197.590,24.096 199.582,24.096 202.015 M24.096 245.783 C 24.096 251.138,27.309 255.422,31.325 255.422 C 39.436 255.422,39.762 254.539,35.629 243.768 C 31.497 232.999,24.096 234.293,24.096 245.783 M48.193 257.987 C 48.193 267.725,28.896 274.813,17.973 269.087 C 8.436 264.089,-1.690 268.065,2.658 275.101 C 5.711 280.040,43.744 300.453,45.188 297.927 C 61.085 270.111,65.304 250.602,55.422 250.602 C 51.446 250.602,48.193 253.925,48.193 257.987 " stroke="none" fill="#000000" fill-rule="evenodd"></path></g></svg>