<svg id="svg" xmlns="http://www.w3.org/2000/svg" xmlns:xlink="http://www.w3.org/1999/xlink" width="400" height="521.2121212121212" viewBox="0, 0, 400,521.2121212121212" version="1.1"><g id="svgg"><path id="path0" d="M0.000 5.682 C 0.000 12.719,17.895 17.429,21.722 11.399 C 25.490 5.464,24.772 3.879,17.424 1.910 C 5.207 -1.364,0.000 -0.237,0.000 5.682 M38.132 14.070 C 37.081 16.809,36.594 19.301,37.050 19.608 C 45.625 25.385,58.454 27.737,60.840 23.968 C 65.065 17.294,64.294 15.974,54.093 12.418 C 41.588 8.058,40.391 8.182,38.132 14.070 M74.704 31.709 C 71.596 39.809,90.775 50.851,95.864 43.892 C 99.500 38.920,99.020 37.657,91.650 32.797 C 81.554 26.139,76.954 25.844,74.704 31.709 M107.097 56.215 C 104.815 62.161,117.341 75.890,123.050 73.699 C 129.243 71.323,128.216 65.579,120.259 58.104 C 111.932 50.281,109.508 49.933,107.097 56.215 M134.095 85.299 C 129.705 89.688,137.389 106.061,143.838 106.061 C 151.118 106.061,152.106 100.421,146.491 90.915 C 140.542 80.844,139.171 80.223,134.095 85.299 M151.919 120.898 C 144.995 125.285,152.968 145.300,160.821 143.246 C 164.978 142.159,166.342 139.916,165.236 135.988 C 164.356 132.861,162.863 127.576,161.917 124.242 C 160.028 117.585,158.144 116.955,151.919 120.898 M162.598 160.022 C 158.522 160.852,157.487 162.926,158.768 167.701 C 159.734 171.299,160.542 175.947,160.565 178.030 C 160.587 180.114,163.333 181.818,166.667 181.818 C 170.995 181.818,172.666 179.869,172.514 175.000 C 172.176 164.157,168.625 158.795,162.598 160.022 M160.606 212.121 C 160.606 222.222,161.616 224.242,166.667 224.242 C 171.717 224.242,172.727 222.222,172.727 212.121 C 172.727 202.020,171.717 200.000,166.667 200.000 C 161.616 200.000,160.606 202.020,160.606 212.121 M160.606 251.515 C 160.606 261.616,161.616 263.636,166.667 263.636 C 171.717 263.636,172.727 261.616,172.727 251.515 C 172.727 241.414,171.717 239.394,166.667 239.394 C 161.616 239.394,160.606 241.414,160.606 251.515 M160.606 294.162 C 160.606 304.280,161.562 306.324,165.909 305.500 C 174.366 303.897,175.243 281.818,166.850 281.818 C 161.567 281.818,160.606 283.718,160.606 294.162 M164.211 332.576 C 164.985 341.923,166.437 344.121,172.396 344.964 C 178.113 345.772,179.232 344.921,177.699 340.928 C 176.631 338.145,175.758 332.570,175.758 328.540 C 175.758 323.161,174.097 321.212,169.514 321.212 C 164.152 321.212,163.403 322.817,164.211 332.576 M171.662 362.909 C 169.792 365.935,177.791 384.862,180.914 384.802 C 188.523 384.656,190.258 379.982,186.245 370.439 C 182.415 361.330,175.003 357.503,171.662 362.909 M189.780 399.376 C 186.093 405.341,200.690 421.821,205.447 417.064 C 209.532 412.979,209.478 411.648,204.943 404.727 C 199.969 397.136,192.741 394.585,189.780 399.376 M216.472 430.618 C 212.678 436.757,229.163 450.173,234.776 445.515 C 239.132 441.900,238.952 440.829,232.906 434.394 C 225.664 426.685,219.743 425.325,216.472 430.618 M348.577 452.920 C 345.523 456.599,347.293 458.875,358.969 466.280 C 366.711 471.190,371.608 476.091,369.855 477.175 C 364.470 480.503,365.930 491.840,371.470 489.714 C 374.256 488.645,372.221 492.987,366.623 500.055 C 357.682 511.344,356.185 521.212,363.412 521.212 C 366.128 521.212,400.000 480.974,400.000 477.748 C 400.000 476.242,356.127 448.485,353.747 448.485 C 352.928 448.485,350.601 450.481,348.577 452.920 M247.358 456.140 C 244.709 463.046,265.855 472.861,269.797 466.556 C 271.772 463.395,270.633 460.617,265.830 456.886 C 257.450 450.375,249.691 450.062,247.358 456.140 M285.802 471.582 C 283.593 477.339,287.085 480.819,297.699 483.440 C 305.441 485.352,313.009 478.665,308.362 474.018 C 303.360 469.017,287.446 467.298,285.802 471.582 M325.001 481.181 C 322.912 486.626,329.447 490.803,340.152 490.863 C 346.320 490.897,348.485 489.421,348.485 485.180 C 348.485 477.871,327.634 474.320,325.001 481.181 " stroke="none" fill="#000000" fill-rule="evenodd"></path></g></svg>