<svg xmlns="http://www.w3.org/2000/svg" width="2311" height="11" viewBox="0 0 2311 11"><g><g><path fill="#e4ebf0" d="M192.548 5.145c-1.52 2.298-3.979 3.736-6.49 4.62-2.527.86-5.337 1.187-7.974.44-2.619-.68-5.062-2.031-7.1-3.858a17.485 17.485 0 0 1-2.72-3.089l-.212-.314a2.92 2.92 0 0 1-.15-.233c-.095-.124-.185-.457-.283-.112l-.281.566c-.048.143-.27.45-.472.74a14.308 14.308 0 0 1-4.555 4.36 16.01 16.01 0 0 1-6.324 2.165c-2.237.27-4.526.042-6.54-.7-2.009-.74-3.751-1.973-4.803-3.493-1.052 1.52-2.794 2.753-4.802 3.494-2.015.74-4.304.97-6.54.7a16.01 16.01 0 0 1-6.325-2.166 14.31 14.31 0 0 1-4.555-4.36c-.202-.29-.425-.597-.472-.74l-.281-.566c-.098-.345-.188-.012-.284.112-.046.079-.095.158-.149.233l-.211.314a17.481 17.481 0 0 1-2.722 3.089c-2.037 1.827-4.48 3.177-7.1 3.859-2.636.746-5.446.418-7.973-.441-2.511-.884-4.971-2.322-6.49-4.62-.16-.29-.228-.536-.229-.705 0 .17-.07.414-.23.705-1.518 2.298-3.978 3.736-6.49 4.62-2.526.86-5.336 1.187-7.972.44-2.62-.68-5.063-2.031-7.1-3.858a17.48 17.48 0 0 1-2.721-3.089l-.212-.314a2.92 2.92 0 0 1-.15-.233c-.095-.124-.185-.457-.283-.112l-.281.566c-.047.143-.27.45-.472.74a14.31 14.31 0 0 1-4.555 4.36 16.01 16.01 0 0 1-6.324 2.165c-2.237.27-4.526.042-6.54-.7-2.008-.74-3.751-1.973-4.803-3.493-1.052 1.52-2.794 2.753-4.802 3.494-2.015.74-4.304.97-6.54.7a16.01 16.01 0 0 1-6.325-2.166 14.31 14.31 0 0 1-4.554-4.36c-.203-.29-.425-.597-.473-.74l-.281-.566c-.098-.345-.188-.012-.283.112-.046.079-.096.158-.15.233l-.211.314a17.486 17.486 0 0 1-2.721 3.089c-2.038 1.827-4.481 3.177-7.1 3.859-2.637.746-5.447.418-7.973-.441-2.512-.884-4.972-2.322-6.49-4.62C0 4.28.323 3.816.881 4.58c1.395 1.752 3.452 2.917 5.579 3.752 2.14.822 4.483 1.263 6.709 1.027 2.454-.315 4.884-1.328 6.954-2.828a16.955 16.955 0 0 0 2.844-2.605c.215-.243.423-.491.616-.753l.296-.386.338-.494.888-1.428.214-.347c.018-.021.037-.073.053-.07l.045.09.09.179.356.71.578 1.159.14.278.113.165.225.332c.301.44.576.904.954 1.28.682.818 1.485 1.525 2.345 2.14 1.725 1.228 3.717 2.055 5.788 2.47 2.072.416 4.238.39 6.317-.1 2.074-.491 4.075-1.49 5.642-3.02.165-.151.319-.209.412-.196.094-.013.247.045.413.197 1.566 1.53 3.567 2.528 5.64 3.019 2.08.49 4.246.516 6.318.1 2.072-.415 4.063-1.242 5.788-2.47.86-.615 1.664-1.322 2.345-2.14.379-.376.653-.84.954-1.28l.225-.332.113-.165.14-.278.579-1.159.355-.71.09-.18.045-.088c.016-.004.035.048.053.07l.214.346.888 1.428.338.494.296.386c.194.262.401.51.616.753a16.94 16.94 0 0 0 2.844 2.605c2.07 1.5 4.5 2.513 6.955 2.828 2.225.236 4.569-.205 6.708-1.027 2.128-.835 4.184-2 5.579-3.752.37-.505.636-.473.637-.144.001-.33.268-.36.637.144 1.395 1.752 3.452 2.917 5.579 3.752 2.14.822 4.483 1.263 6.709 1.027 2.453-.315 4.884-1.328 6.954-2.828a16.95 16.95 0 0 0 2.844-2.605c.215-.243.423-.491.616-.753l.296-.386.338-.494.888-1.428.214-.347c.018-.021.037-.073.053-.07l.045.09.09.179.355.71.58 1.159.14.278.112.165.225.332c.301.44.575.904.954 1.28.682.818 1.485 1.525 2.345 2.14 1.725 1.228 3.717 2.055 5.788 2.47 2.072.416 4.238.39 6.317-.1 2.074-.491 4.075-1.49 5.641-3.02.166-.151.32-.209.413-.196.093-.013.247.045.413.197 1.566 1.53 3.567 2.528 5.64 3.019 2.08.49 4.246.516 6.318.1 2.071-.415 4.063-1.242 5.788-2.47.86-.615 1.663-1.322 2.345-2.14.378-.376.653-.84.954-1.28l.225-.332.112-.165.14-.278.58-1.159.355-.71.09-.18.045-.088c.016-.004.035.048.053.07l.214.346.888 1.428.338.494.296.386c.193.262.401.51.616.753a16.945 16.945 0 0 0 2.844 2.605c2.07 1.5 4.5 2.513 6.954 2.828 2.226.236 4.57-.205 6.71-1.027 2.126-.835 4.183-2 5.578-3.752.37-.505.636-.473.637-.144.166.02.431.233.66.59 1.616 2.117 4.04 3.392 6.496 4.184 2.478.765 5.147 1.04 7.639.315 2.506-.669 4.852-1.97 6.795-3.737a16.144 16.144 0 0 0 2.573-2.984c.16-.239.506-.785.723-1.172.244-.338.512-1.207.713-.43l.655 1.233c.106.183.231.47.323.57l.29.39c1.065 1.52 2.627 2.843 4.45 3.732 1.823.897 3.869 1.41 5.905 1.568 4.053.319 7.93-.726 10.955-2.505-.174-.264.067-.36.378-.117a1.183 1.183 0 0 1 .07.059c1.566 1.53 3.567 2.528 5.64 3.019 2.08.49 4.246.516 6.318.1 2.071-.415 4.063-1.242 5.788-2.47.86-.615 1.663-1.322 2.344-2.14.38-.376.653-.84.955-1.28l.225-.332.112-.165.14-.278.58-1.159.355-.71.09-.18.045-.088c.016-.004.035.048.053.07l.214.346.888 1.428.338.494.296.386c.193.262.401.51.616.753a16.949 16.949 0 0 0 2.844 2.605c2.07 1.5 4.5 2.513 6.954 2.828 2.226.236 4.57-.205 6.71-1.027 2.126-.835 4.183-2 5.578-3.752.37-.505.636-.473.637-.144.166.02.43.233.66.59 1.616 2.117 4.04 3.392 6.496 4.184 2.478.765 5.147 1.04 7.639.315 2.506-.669 4.852-1.97 6.795-3.737a16.144 16.144 0 0 0 2.573-2.984c.16-.239.506-.785.723-1.172.244-.338.511-1.207.713-.43l.655 1.233c.106.183.23.47.322.57l.29.39c1.066 1.52 2.628 2.843 4.452 3.732 1.822.897 3.868 1.41 5.904 1.568 4.052.319 7.93-.726 10.955-2.505-.174-.264.067-.36.378-.117a1.166 1.166 0 0 1 .07.059c1.565 1.53 3.567 2.528 5.64 3.019 2.08.49 4.246.516 6.318.1 2.071-.415 4.063-1.242 5.788-2.47.86-.615 1.663-1.322 2.344-2.14.38-.376.653-.84.955-1.28l.225-.332.112-.165.14-.278.58-1.159.355-.71.09-.18.045-.088c.016-.004.035.048.052.07l.215.346.888 1.428.338.494.296.387c.193.26.401.51.616.752a16.944 16.944 0 0 0 2.843 2.605c2.07 1.5 4.501 2.513 6.955 2.828 2.225.236 4.57-.205 6.709-1.027 2.127-.835 4.184-2 5.578-3.752.37-.505.637-.473.638-.144.166.02.43.233.66.59 1.616 2.117 4.04 3.392 6.495 4.184 2.479.765 5.148 1.04 7.64.315 2.506-.669 4.852-1.97 6.795-3.737a16.144 16.144 0 0 0 2.572-2.984c.16-.239.506-.785.723-1.172.245-.338.512-1.207.714-.43l.655 1.233c.106.183.23.47.322.57l.29.39c1.066 1.52 2.628 2.843 4.451 3.732 1.823.897 3.869 1.41 5.905 1.568 4.052.319 7.93-.726 10.955-2.505-.175-.264.067-.36.378-.117a1.187 1.187 0 0 1 .07.059c1.565 1.53 3.567 2.528 5.64 3.019 2.08.49 4.246.516 6.318.1 2.071-.415 4.062-1.242 5.788-2.47.86-.615 1.663-1.322 2.344-2.14.379-.376.653-.84.955-1.28l.224-.332.113-.165.14-.278.58-1.159.355-.71.09-.18.045-.088c.016-.004.035.048.052.07l.214.346.889 1.428.338.494.296.386c.193.262.4.51.616.753a16.944 16.944 0 0 0 2.843 2.605c2.07 1.5 4.5 2.513 6.955 2.828 2.225.236 4.57-.205 6.709-1.027 2.127-.835 4.184-2 5.578-3.752.37-.505.636-.473.637-.144.167.02.432.233.66.59 1.617 2.117 4.04 3.392 6.496 4.184 2.479.765 5.148 1.04 7.64.315 2.505-.669 4.852-1.97 6.795-3.737a16.147 16.147 0 0 0 2.572-2.984c.16-.239.506-.785.723-1.172.245-.338.512-1.207.714-.43l.655 1.233c.106.183.23.47.322.57l.29.39c1.066 1.52 2.627 2.843 4.451 3.732 1.823.897 3.868 1.41 5.905 1.568 4.052.319 7.93-.726 10.955-2.505-.175-.264.067-.36.378-.117a1.166 1.166 0 0 1 .069.059c1.566 1.53 3.568 2.528 5.641 3.019 2.08.49 4.245.516 6.318.1 2.07-.415 4.062-1.242 5.788-2.47.86-.615 1.663-1.322 2.344-2.14.379-.376.653-.84.955-1.28l.224-.332.113-.165.14-.278.579-1.159.356-.71.09-.18.044-.088c.017-.004.036.048.053.07l.214.346.888 1.428.338.494.297.386c.193.262.4.51.615.753a16.949 16.949 0 0 0 2.844 2.605c2.07 1.5 4.5 2.513 6.955 2.828 2.225.236 4.57-.205 6.709-1.027 2.127-.835 4.183-2 5.578-3.752.198-.27.367-.387.48-.386.115-.001.283.115.482.386 1.394 1.752 3.45 2.917 5.578 3.752 2.14.822 4.484 1.263 6.71 1.027 2.453-.315 4.883-1.328 6.954-2.828a16.95 16.95 0 0 0 2.843-2.605c.215-.243.423-.491.616-.753l.296-.386.338-.494.889-1.428.214-.347c.017-.021.036-.073.052-.07l.045.09.09.179.356.71.579 1.159.14.278.112.165.225.332c.302.44.576.904.955 1.28.681.818 1.485 1.525 2.344 2.14 1.726 1.228 3.717 2.055 5.788 2.47 2.073.416 4.238.39 6.318-.1 2.073-.491 4.075-1.49 5.64-3.02a1.176 1.176 0 0 1 .07-.058c.311-.242.553-.147.378.117 3.025 1.779 6.903 2.824 10.955 2.505 2.036-.159 4.082-.671 5.904-1.568 1.824-.89 3.386-2.211 4.451-3.732l.29-.39c.092-.1.217-.387.323-.57l.655-1.234c.202-.776.47.093.713.43.218.388.563.934.724 1.173a16.147 16.147 0 0 0 2.572 2.984c1.943 1.767 4.29 3.068 6.795 3.737 2.492.725 5.161.45 7.64-.315 2.456-.792 4.879-2.067 6.495-4.184.23-.357.494-.57.66-.59.001-.33.268-.36.637.144 1.395 1.752 3.452 2.917 5.579 3.752 2.14.822 4.483 1.263 6.709 1.027 2.454-.315 4.884-1.328 6.954-2.828a16.945 16.945 0 0 0 2.844-2.605c.215-.243.423-.491.616-.753l.296-.386.338-.494.888-1.428.215-.347c.017-.021.036-.073.052-.07l.045.09.09.179.356.71.579 1.159.14.278.112.165.225.332c.302.44.576.904.955 1.28.68.818 1.484 1.525 2.344 2.14 1.725 1.228 3.717 2.055 5.788 2.47 2.072.416 4.238.39 6.318-.1 2.073-.491 4.074-1.49 5.64-3.02a1.172 1.172 0 0 1 .07-.058c.31-.242.553-.147.378.117 3.025 1.779 6.903 2.824 10.955 2.505 2.036-.159 4.082-.671 5.904-1.568 1.824-.89 3.386-2.211 4.451-3.732l.29-.39c.092-.1.217-.387.323-.57l.655-1.234c.202-.776.47.093.713.43.217.388.563.934.723 1.173a16.143 16.143 0 0 0 2.573 2.984c1.943 1.767 4.29 3.068 6.795 3.737 2.492.725 5.161.45 7.64-.315 2.455-.792 4.879-2.067 6.495-4.184.23-.357.494-.57.66-.59.001-.33.268-.36.637.144 1.395 1.752 3.452 2.917 5.579 3.752 2.14.822 4.483 1.263 6.709 1.027 2.454-.315 4.884-1.328 6.954-2.828a16.945 16.945 0 0 0 2.844-2.605c.215-.243.423-.491.616-.753l.296-.386.338-.494.888-1.428.214-.347c.018-.021.037-.073.053-.07l.045.09.09.179.356.71.578 1.159.14.278.113.165.225.332c.302.44.576.904.954 1.28.682.818 1.485 1.525 2.345 2.14 1.725 1.228 3.717 2.055 5.788 2.47 2.072.416 4.238.39 6.317-.1 2.074-.491 4.075-1.49 5.642-3.02a1.175 1.175 0 0 1 .069-.058c.31-.242.552-.147.378.117 3.025 1.779 6.902 2.824 10.955 2.505 2.036-.159 4.081-.671 5.904-1.568 1.824-.89 3.386-2.211 4.451-3.732l.29-.39c.092-.1.217-.387.322-.57l.656-1.234c.201-.776.469.093.713.43.217.388.563.934.723 1.173a16.143 16.143 0 0 0 2.573 2.984c1.943 1.767 4.29 3.068 6.795 3.737 2.492.725 5.16.45 7.64-.315 2.455-.792 4.879-2.067 6.495-4.184.229-.357.494-.57.66-.59.001-.33.268-.36.637.144 1.395 1.752 3.451 2.917 5.579 3.752 2.139.822 4.483 1.263 6.709 1.027 2.454-.315 4.884-1.328 6.954-2.828a16.941 16.941 0 0 0 2.844-2.605c.215-.243.423-.491.616-.753l.296-.386.338-.494.888-1.428.214-.347c.018-.021.037-.073.053-.07l.045.09.09.179.355.71.58 1.159.14.278.112.165.225.332c.301.44.576.904.954 1.28.682.818 1.485 1.525 2.345 2.14 1.725 1.228 3.716 2.055 5.788 2.47 2.072.416 4.238.39 6.317-.1 2.074-.491 4.075-1.49 5.641-3.02a1.183 1.183 0 0 1 .07-.058c.31-.242.552-.147.377.117 3.025 1.779 6.903 2.824 10.956 2.505 2.036-.159 4.081-.671 5.904-1.568 1.824-.89 3.386-2.211 4.451-3.732l.29-.39c.092-.1.217-.387.322-.57l.656-1.234c.201-.776.469.093.713.43.217.388.563.934.723 1.173a16.143 16.143 0 0 0 2.573 2.984c1.943 1.767 4.289 3.068 6.795 3.737 2.492.725 5.16.45 7.639-.315 2.456-.792 4.88-2.067 6.496-4.184.229-.357.494-.57.66-.59.001-.33.268-.36.637.144 1.395 1.752 3.451 2.917 5.579 3.752 2.139.822 4.483 1.263 6.709 1.027 2.453-.315 4.884-1.328 6.954-2.828a16.946 16.946 0 0 0 2.844-2.605c.215-.243.422-.491.616-.753l.296-.386.338-.494.888-1.428.214-.347c.018-.021.036-.073.053-.07l.045.09.09.179.355.71.58 1.159.14.278.112.165.224.332c.302.44.576.904.955 1.28.682.818 1.485 1.525 2.345 2.14 1.725 1.228 3.716 2.055 5.788 2.47 2.072.416 4.238.39 6.317-.1 2.074-.491 4.075-1.49 5.641-3.02.166-.151.32-.209.413-.196.093-.013.247.045.412.197 1.567 1.53 3.568 2.528 5.642 3.019 2.079.49 4.245.516 6.317.1 2.071-.415 4.063-1.242 5.788-2.47.86-.615 1.663-1.322 2.344-2.14.38-.376.653-.84.955-1.28l.225-.332.112-.165.14-.278.58-1.16.355-.709.09-.18.045-.088c.016-.004.035.048.053.07l.214.346.888 1.428.338.494.296.386c.193.262.401.51.616.753a16.945 16.945 0 0 0 2.844 2.605c2.07 1.5 4.5 2.513 6.954 2.828 2.226.236 4.57-.205 6.71-1.027 2.126-.835 4.183-2 5.578-3.752.369-.505.636-.473.637-.144.001-.33.268-.36.637.144 1.395 1.752 3.451 2.917 5.578 3.752 2.14.822 4.484 1.263 6.71 1.027 2.453-.315 4.883-1.328 6.954-2.828a16.941 16.941 0 0 0 2.844-2.605c.214-.243.422-.491.616-.753l.296-.386.337-.494.889-1.428.214-.347c.017-.021.036-.073.052-.07l.046.09.09.179.355.71.579 1.159.14.278.113.165.224.332c.302.44.576.904.955 1.28.681.818 1.485 1.525 2.345 2.14 1.725 1.228 3.716 2.055 5.787 2.47 2.073.416 4.239.39 6.318-.1 2.073-.491 4.075-1.49 5.641-3.02.166-.151.32-.209.413-.196.093-.013.247.045.412.197 1.566 1.53 3.568 2.528 5.641 3.019 2.08.49 4.246.516 6.318.1 2.071-.415 4.063-1.242 5.788-2.47.86-.615 1.663-1.322 2.344-2.14.38-.376.653-.84.955-1.28l.225-.332.112-.165.14-.278.58-1.16.355-.709.09-.18.045-.088c.016-.004.035.048.052.07l.215.346.888 1.428.338.494.296.386c.193.262.4.51.616.753a16.954 16.954 0 0 0 2.843 2.605c2.07 1.5 4.501 2.513 6.955 2.828 2.225.236 4.57-.205 6.709-1.027 2.127-.835 4.184-2 5.578-3.752.045-.06.088-.113.129-.159.005-.187.1-.271.254-.204.153-.067.249.017.254.204.041.046.084.099.129.16 1.394 1.75 3.45 2.916 5.578 3.751 2.14.822 4.483 1.263 6.709 1.027 2.454-.315 4.884-1.328 6.954-2.828a16.955 16.955 0 0 0 2.844-2.605c.215-.243.423-.491.616-.753l.296-.386.338-.494.888-1.428.215-.347c.017-.021.036-.073.052-.07l.045.09.09.179.356.71.579 1.159.14.278.112.165.225.332c.302.44.576.904.955 1.28.681.818 1.485 1.525 2.344 2.14 1.725 1.228 3.717 2.055 5.788 2.47 2.072.416 4.238.39 6.318-.1 2.073-.491 4.075-1.49 5.64-3.02.166-.151.32-.209.413-.196.094-.013.247.045.413.197 1.566 1.53 3.567 2.528 5.641 3.019 2.08.49 4.245.516 6.318.1 2.07-.415 4.062-1.242 5.787-2.47.86-.615 1.664-1.322 2.345-2.14.379-.376.653-.84.955-1.28l.224-.332.113-.165.14-.278.579-1.16.356-.709.09-.18.044-.088c.017-.004.036.048.053.07l.214.346.889 1.428.337.494.296.386c.194.262.402.51.616.753a16.94 16.94 0 0 0 2.844 2.605c2.07 1.5 4.5 2.513 6.955 2.828 2.225.236 4.57-.205 6.709-1.027 2.127-.835 4.183-2 5.578-3.752.559-.764.882-.3.408.565-1.519 2.298-3.979 3.736-6.49 4.62-2.527.86-5.337 1.187-7.973.44-2.62-.68-5.063-2.031-7.1-3.858a17.485 17.485 0 0 1-2.721-3.089l-.212-.314a2.92 2.92 0 0 1-.15-.233c-.094-.124-.184-.457-.282-.112l-.282.566c-.047.143-.27.45-.472.74a14.308 14.308 0 0 1-4.555 4.36 16.01 16.01 0 0 1-6.324 2.165c-2.236.27-4.526.042-6.54-.7-2.008-.74-3.75-1.973-4.803-3.493-1.052 1.52-2.794 2.753-4.802 3.493-2.015.742-4.304.97-6.54.7a16.01 16.01 0 0 1-6.324-2.165 14.31 14.31 0 0 1-4.555-4.36c-.203-.29-.425-.597-.472-.74l-.282-.566c-.098-.345-.188-.012-.283.112-.046.079-.095.158-.15.233l-.211.314a17.481 17.481 0 0 1-2.721 3.089c-2.038 1.827-4.481 3.177-7.1 3.859-2.636.746-5.447.418-7.973-.441-2.498-.879-4.944-2.306-6.465-4.582-1.52 2.276-3.967 3.703-6.465 4.582-2.526.86-5.337 1.187-7.973.44-2.619-.68-5.062-2.031-7.1-3.858a17.481 17.481 0 0 1-2.721-3.089l-.212-.314a2.92 2.92 0 0 1-.149-.233c-.095-.124-.185-.457-.283-.112l-.282.566c-.047.143-.27.45-.472.74a14.31 14.31 0 0 1-4.555 4.36 16.01 16.01 0 0 1-6.324 2.165c-2.236.27-4.525.042-6.54-.7-2.008-.74-3.75-1.973-4.802-3.493-1.052 1.52-2.795 2.753-4.803 3.493-2.015.742-4.304.97-6.54.7a16.01 16.01 0 0 1-6.324-2.165 14.308 14.308 0 0 1-4.555-4.36c-.202-.29-.425-.597-.472-.74l-.282-.566c-.097-.345-.188-.012-.283.112-.046.079-.095.158-.15.233l-.21.314a17.48 17.48 0 0 1-2.722 3.089c-2.037 1.827-4.48 3.177-7.1 3.859-2.636.746-5.446.418-7.973-.441-2.511-.884-4.971-2.322-6.49-4.62-.16-.29-.229-.536-.23-.705 0 .17-.07.414-.228.705-1.52 2.298-3.979 3.736-6.49 4.62-2.527.86-5.338 1.187-7.974.44-2.619-.68-5.062-2.031-7.1-3.858a17.481 17.481 0 0 1-2.72-3.089l-.212-.314a2.95 2.95 0 0 1-.15-.233c-.095-.124-.185-.457-.283-.112l-.281.566c-.048.143-.27.45-.472.74a14.31 14.31 0 0 1-4.555 4.36 16.011 16.011 0 0 1-6.324 2.165c-2.237.27-4.526.042-6.54-.7-2.009-.74-3.751-1.973-4.803-3.493-1.052 1.52-2.795 2.753-4.802 3.493-2.015.742-4.305.97-6.54.7a16.01 16.01 0 0 1-6.325-2.165 14.31 14.31 0 0 1-4.555-4.36c-.202-.29-.425-.597-.472-.74l-.282-.566c-.097-.345-.187-.012-.283.112a2.95 2.95 0 0 1-.149.233l-.211.314a17.49 17.49 0 0 1-2.722 3.089c-2.037 1.827-4.48 3.177-7.1 3.859-2.636.746-5.446.418-7.973-.441-2.511-.884-4.971-2.322-6.49-4.62a2.482 2.482 0 0 1-.12-.25c-.028.084-.067.18-.118.289-1.257 2.36-3.541 3.86-5.869 4.815-2.361.944-4.945 1.35-7.519 1.002-2.763-.442-5.346-1.61-7.56-3.301a17.787 17.787 0 0 1-2.987-2.916c-.222-.27-.436-.546-.634-.836l-.303-.429-.219-.352c-.11-.144-.204-.621-.372-.153l-.2.339-.057.093-.132.175-.263.348c-.354.46-.683.94-1.112 1.32-.785.832-1.686 1.523-2.627 2.106-1.892 1.167-3.986 1.872-6.112 2.196-4.236.603-8.765-.211-12.352-3.047a1.28 1.28 0 0 1-.068-.055c-1.064 1.404-2.723 2.542-4.62 3.242-2.014.74-4.303.97-6.54.7a16.01 16.01 0 0 1-6.324-2.166 14.31 14.31 0 0 1-4.555-4.36c-.202-.29-.424-.597-.472-.74l-.281-.566c-.098-.345-.188-.012-.283.112a2.95 2.95 0 0 1-.15.233l-.211.314a17.48 17.48 0 0 1-2.721 3.089c-2.038 1.827-4.481 3.177-7.1 3.859-2.637.746-5.447.418-7.974-.441-2.511-.884-4.97-2.322-6.49-4.62a2.484 2.484 0 0 1-.12-.25c-.028.084-.066.18-.118.289-1.256 2.36-3.541 3.86-5.869 4.815-2.361.944-4.945 1.35-7.519 1.002-2.763-.442-5.346-1.61-7.559-3.301a17.786 17.786 0 0 1-2.988-2.916c-.222-.27-.436-.546-.634-.836l-.303-.429-.219-.352c-.11-.144-.204-.621-.372-.154l-.2.34-.057.093-.132.175-.263.348c-.354.46-.682.94-1.112 1.32-.785.832-1.685 1.523-2.627 2.106-1.891 1.167-3.985 1.872-6.112 2.196-4.236.603-8.765-.211-12.352-3.047a1.283 1.283 0 0 1-.067-.055c-1.065 1.404-2.724 2.542-4.62 3.241-2.015.742-4.304.97-6.54.7a16.012 16.012 0 0 1-6.325-2.165 14.312 14.312 0 0 1-4.555-4.36c-.202-.29-.424-.597-.472-.74l-.281-.566c-.098-.345-.188-.012-.283.112a2.95 2.95 0 0 1-.15.233l-.211.314a17.485 17.485 0 0 1-2.721 3.089c-2.038 1.827-4.48 3.177-7.1 3.859-2.636.746-5.447.418-7.973-.441-2.512-.884-4.972-2.322-6.49-4.62a2.485 2.485 0 0 1-.12-.25c-.028.084-.067.18-.119.289-1.256 2.36-3.54 3.86-5.869 4.815-2.361.944-4.945 1.35-7.518 1.002-2.764-.442-5.347-1.61-7.56-3.301a17.795 17.795 0 0 1-2.988-2.916c-.222-.27-.436-.546-.634-.836l-.302-.429-.22-.352c-.11-.144-.203-.621-.372-.154l-.2.34-.057.093-.132.175-.263.348c-.354.46-.682.94-1.112 1.32-.785.832-1.685 1.523-2.627 2.106-1.891 1.167-3.985 1.872-6.112 2.196-4.236.603-8.765-.211-12.352-3.047a1.28 1.28 0 0 1-.067-.055c-1.065 1.404-2.724 2.542-4.62 3.241-2.015.742-4.304.97-6.54.7a16.012 16.012 0 0 1-6.324-2.165 14.31 14.31 0 0 1-4.555-4.36c-.203-.29-.425-.597-.472-.74l-.282-.567c-.098-.344-.188-.01-.283.113-.046.079-.095.157-.15.233l-.211.314a17.485 17.485 0 0 1-2.721 3.089c-2.038 1.827-4.48 3.177-7.1 3.859-2.636.746-5.447.418-7.973-.441-2.512-.884-4.971-2.322-6.49-4.62a2.485 2.485 0 0 1-.12-.25c-.028.084-.067.18-.119.289-1.256 2.36-3.54 3.86-5.868 4.815-2.362.944-4.945 1.35-7.52 1.002-2.763-.442-5.346-1.61-7.559-3.301a17.79 17.79 0 0 1-2.988-2.916 11.76 11.76 0 0 1-.634-.836l-.302-.429-.22-.352c-.11-.144-.203-.621-.371-.154l-.201.34-.057.093-.131.175-.264.348c-.354.46-.682.94-1.112 1.32-.785.832-1.685 1.523-2.627 2.106-1.891 1.167-3.985 1.872-6.112 2.196-4.236.603-8.765-.211-12.352-3.047a1.282 1.282 0 0 1-.067-.055c-1.065 1.404-2.724 2.542-4.62 3.241-2.015.742-4.304.97-6.54.7a16.01 16.01 0 0 1-6.324-2.165 14.31 14.31 0 0 1-4.555-4.36c-.202-.29-.425-.597-.472-.74L603 2.598c-.098-.344-.188-.01-.283.113-.046.079-.095.157-.15.233l-.21.314a17.475 17.475 0 0 1-2.722 3.089c-2.037 1.827-4.48 3.177-7.1 3.859-2.636.746-5.446.418-7.973-.441-2.512-.884-4.971-2.322-6.49-4.62a2.659 2.659 0 0 1-.073-.143 2.66 2.66 0 0 1-.073.143c-1.519 2.298-3.978 3.736-6.49 4.62-2.527.86-5.337 1.187-7.973.44-2.62-.68-5.063-2.031-7.1-3.858a17.475 17.475 0 0 1-2.721-3.089l-.212-.314a2.984 2.984 0 0 1-.15-.233c-.094-.124-.184-.457-.282-.113l-.282.567c-.047.143-.27.45-.472.74a14.31 14.31 0 0 1-4.555 4.36 16.011 16.011 0 0 1-6.324 2.165c-2.236.27-4.525.042-6.54-.7-1.896-.699-3.555-1.837-4.62-3.24l-.067.054c-3.587 2.836-8.116 3.65-12.352 3.047-2.127-.324-4.22-1.03-6.112-2.196-.942-.583-1.842-1.274-2.627-2.106-.43-.38-.758-.86-1.112-1.32l-.263-.348-.132-.175-.057-.093-.2-.34c-.169-.467-.262.01-.372.154l-.22.352-.302.429c-.198.29-.412.566-.634.836a17.791 17.791 0 0 1-2.988 2.916c-2.213 1.69-4.796 2.859-7.56 3.301-2.573.348-5.157-.058-7.519-1.002-2.327-.954-4.612-2.456-5.868-4.815a2.515 2.515 0 0 1-.118-.289 2.483 2.483 0 0 1-.12.25c-1.52 2.298-3.98 3.736-6.49 4.62-2.527.86-5.338 1.187-7.974.44-2.62-.68-5.062-2.031-7.1-3.858a17.49 17.49 0 0 1-2.72-3.089l-.213-.314a2.949 2.949 0 0 1-.149-.233c-.095-.124-.185-.457-.283-.113l-.282.567c-.047.143-.27.45-.472.74a14.31 14.31 0 0 1-4.555 4.36 16.012 16.012 0 0 1-6.324 2.165c-2.236.27-4.525.042-6.54-.7-1.896-.699-3.555-1.837-4.62-3.24l-.067.054c-3.587 2.836-8.116 3.65-12.352 3.047-2.127-.324-4.22-1.03-6.112-2.196-.942-.583-1.842-1.274-2.627-2.106-.43-.38-.758-.86-1.112-1.32l-.263-.348-.132-.175-.057-.093-.2-.34c-.168-.467-.262.01-.372.154l-.22.352-.302.429c-.198.29-.412.566-.634.836a17.791 17.791 0 0 1-2.988 2.916c-2.213 1.69-4.796 2.859-7.56 3.301-2.573.348-5.157-.058-7.518-1.002-2.328-.954-4.613-2.456-5.869-4.815a2.516 2.516 0 0 1-.118-.289 2.485 2.485 0 0 1-.12.25c-1.52 2.298-3.979 3.736-6.49 4.62-2.527.86-5.337 1.187-7.974.44-2.619-.68-5.062-2.031-7.1-3.858a17.485 17.485 0 0 1-2.72-3.089l-.212-.314a2.95 2.95 0 0 1-.15-.233c-.095-.124-.185-.457-.283-.113l-.281.567c-.048.143-.27.45-.472.74A14.312 14.312 0 0 1 355 8.265a16.012 16.012 0 0 1-6.324 2.165c-2.237.27-4.526.042-6.541-.7-1.896-.699-3.555-1.837-4.62-3.24l-.067.054c-3.587 2.836-8.116 3.65-12.352 3.047-2.127-.324-4.22-1.03-6.112-2.196-.942-.583-1.842-1.274-2.627-2.106-.43-.38-.758-.86-1.112-1.32l-.263-.348-.132-.175-.057-.093-.2-.34c-.168-.467-.262.01-.372.154l-.22.352-.302.429c-.198.29-.412.566-.634.836a17.79 17.79 0 0 1-2.988 2.916c-2.213 1.69-4.796 2.859-7.56 3.301-2.573.348-5.157-.058-7.518-1.002-2.328-.954-4.613-2.456-5.869-4.815a2.516 2.516 0 0 1-.118-.289 2.484 2.484 0 0 1-.12.25c-1.519 2.298-3.979 3.736-6.49 4.62-2.527.86-5.337 1.187-7.974.44-2.619-.68-5.062-2.031-7.1-3.858a17.48 17.48 0 0 1-2.72-3.089l-.212-.314a2.95 2.95 0 0 1-.15-.233c-.095-.124-.185-.457-.283-.112l-.281.566c-.047.143-.27.45-.472.74a14.312 14.312 0 0 1-4.555 4.36 16.011 16.011 0 0 1-6.324 2.165c-2.237.27-4.526.042-6.54-.7-1.896-.699-3.556-1.837-4.62-3.24l-.067.054c-3.588 2.836-8.117 3.65-12.353 3.047-2.126-.324-4.22-1.03-6.112-2.196-.941-.583-1.842-1.274-2.627-2.106-.43-.38-.758-.86-1.112-1.32l-.263-.348-.132-.175-.056-.093-.201-.34c-.168-.467-.261.01-.372.154l-.22.352-.302.429c-.198.29-.412.566-.634.836a17.791 17.791 0 0 1-2.988 2.916c-2.213 1.69-4.796 2.859-7.56 3.301-2.573.348-5.157-.058-7.518-1.002-2.328-.954-4.612-2.456-5.868-4.815a2.518 2.518 0 0 1-.119-.289 2.485 2.485 0 0 1-.12.25zM2118.86 4.58c1.395 1.752 3.451 2.917 5.579 3.752 2.14.822 4.483 1.263 6.709 1.027 2.454-.315 4.884-1.328 6.954-2.828a16.946 16.946 0 0 0 2.844-2.605c.215-.243.422-.491.616-.753l.296-.386.338-.494.888-1.428.214-.347c.018-.021.037-.073.053-.07l.045.09.09.179.355.71.58 1.159.14.278.112.165.225.332c.301.44.575.904.954 1.28.682.818 1.485 1.525 2.345 2.14 1.725 1.228 3.716 2.055 5.788 2.47 2.072.416 4.238.39 6.317-.1 2.074-.491 4.075-1.49 5.641-3.02.166-.151.32-.209.413-.196.093-.013.247.045.412.197 1.567 1.53 3.568 2.528 5.642 3.019 2.079.49 4.245.516 6.317.1 2.071-.415 4.063-1.242 5.788-2.47.86-.615 1.663-1.322 2.345-2.14.379-.376.653-.84.954-1.28l.225-.332.112-.165.14-.278.58-1.159.355-.71.09-.18.045-.088c.016-.004.035.048.053.07l.214.346.888 1.428.338.494.296.386c.193.262.401.51.616.753a16.949 16.949 0 0 0 2.844 2.605c2.07 1.5 4.5 2.513 6.954 2.828 2.226.236 4.57-.205 6.71-1.027 2.126-.835 4.183-2 5.578-3.752.369-.505.636-.473.637-.144.001-.33.268-.36.637.144 1.395 1.752 3.451 2.917 5.578 3.752 2.14.822 4.484 1.263 6.71 1.027 2.453-.315 4.884-1.328 6.954-2.828a16.946 16.946 0 0 0 2.844-2.605c.214-.243.422-.491.616-.753l.296-.386.337-.494.889-1.428.214-.347c.017-.021.036-.073.053-.07l.045.09.09.179.355.71.579 1.159.14.278.113.165.224.332c.302.44.576.904.955 1.28.681.818 1.485 1.525 2.345 2.14 1.725 1.228 3.716 2.055 5.787 2.47 2.073.416 4.239.39 6.318-.1 2.074-.491 4.075-1.49 5.641-3.02.166-.151.32-.209.413-.196.093-.013.247.045.412.197 1.567 1.53 3.568 2.528 5.641 3.019 2.08.49 4.246.516 6.318.1 2.071-.415 4.063-1.242 5.788-2.47.86-.615 1.663-1.322 2.344-2.14.38-.376.653-.84.955-1.28l.225-.332.112-.165.14-.278.58-1.159.355-.71.09-.18.045-.088c.016-.004.035.048.052.07l.215.346.888 1.428.338.494.296.386c.193.262.401.51.616.753a16.95 16.95 0 0 0 2.844 2.605c2.07 1.5 4.5 2.513 6.954 2.828 2.226.236 4.57-.205 6.71-1.027 2.126-.835 4.183-2 5.577-3.752.56-.764.883-.3.409.565-1.52 2.298-3.98 3.736-6.49 4.62-2.527.86-5.338 1.187-7.974.44-2.619-.68-5.062-2.031-7.1-3.858a17.485 17.485 0 0 1-2.72-3.089l-.212-.314a2.92 2.92 0 0 1-.15-.233c-.095-.124-.185-.457-.283-.112l-.281.566c-.048.143-.27.45-.473.74a14.31 14.31 0 0 1-4.554 4.36 16.01 16.01 0 0 1-6.325 2.165c-2.236.27-4.525.042-6.54-.7-2.008-.74-3.75-1.973-4.802-3.493-1.052 1.52-2.795 2.753-4.802 3.494-2.015.74-4.305.97-6.54.7a16.01 16.01 0 0 1-6.325-2.166 14.31 14.31 0 0 1-4.555-4.36c-.202-.29-.425-.597-.472-.74l-.282-.566c-.097-.345-.188-.012-.283.112-.046.079-.095.158-.15.233l-.21.314a17.48 17.48 0 0 1-2.722 3.089c-2.037 1.827-4.48 3.177-7.1 3.859-2.636.746-5.446.418-7.973-.441-2.511-.884-4.971-2.322-6.49-4.62-.16-.29-.229-.536-.23-.705 0 .17-.07.414-.228.705-1.52 2.298-3.979 3.736-6.49 4.62-2.527.86-5.337 1.187-7.974.44-2.619-.68-5.062-2.031-7.1-3.858a17.481 17.481 0 0 1-2.72-3.089l-.212-.314a2.92 2.92 0 0 1-.15-.233c-.095-.124-.185-.457-.283-.112l-.281.566c-.048.143-.27.45-.472.74a14.31 14.31 0 0 1-4.555 4.36 16.01 16.01 0 0 1-6.324 2.165c-2.237.27-4.526.042-6.54-.7-2.009-.74-3.751-1.973-4.803-3.493-1.052 1.52-2.794 2.753-4.802 3.494-2.015.74-4.304.97-6.54.7a16.01 16.01 0 0 1-6.325-2.166 14.308 14.308 0 0 1-4.555-4.36c-.202-.29-.425-.597-.472-.74l-.281-.566c-.098-.345-.188-.012-.283.112-.047.079-.096.158-.15.233l-.211.314a17.48 17.48 0 0 1-2.722 3.089c-2.037 1.827-4.48 3.177-7.1 3.859-2.636.746-5.446.418-7.973-.441-2.511-.884-4.971-2.322-6.49-4.62a2.484 2.484 0 0 1-.12-.25c-.028.084-.067.18-.118.289-1.256 2.36-3.541 3.86-5.869 4.815-2.361.944-4.945 1.35-7.519 1.002-2.763-.442-5.346-1.61-7.56-3.301a17.79 17.79 0 0 1-2.987-2.916 11.76 11.76 0 0 1-.634-.836l-.303-.429-.219-.352c-.11-.144-.204-.621-.372-.153l-.2.339-.057.093-.132.175-.263.348c-.354.46-.682.94-1.112 1.32-.785.832-1.685 1.523-2.627 2.106-1.891 1.167-3.986 1.872-6.112 2.196-4.236.603-8.765-.211-12.352-3.047a1.278 1.278 0 0 1-.067-.055c-1.065 1.404-2.724 2.542-4.62 3.242-2.015.74-4.304.97-6.54.7a16.011 16.011 0 0 1-6.325-2.166 14.312 14.312 0 0 1-4.555-4.36c-.202-.29-.424-.597-.472-.74l-.281-.566c-.098-.345-.188-.012-.283.112a2.95 2.95 0 0 1-.15.233l-.211.314a17.48 17.48 0 0 1-2.721 3.089c-2.038 1.827-4.481 3.177-7.1 3.859-2.637.746-5.447.418-7.973-.441-2.512-.884-4.972-2.322-6.49-4.62a2.483 2.483 0 0 1-.12-.25c-.028.084-.067.18-.12.289-1.255 2.36-3.54 3.86-5.868 4.815-2.361.944-4.945 1.35-7.518 1.002-2.764-.442-5.347-1.61-7.56-3.301a17.79 17.79 0 0 1-2.988-2.916c-.222-.27-.436-.546-.634-.836l-.302-.429-.22-.352c-.11-.144-.203-.621-.371-.153l-.201.339-.057.093-.132.175-.263.348c-.354.46-.682.94-1.112 1.32-.785.832-1.685 1.523-2.627 2.106-1.891 1.167-3.985 1.872-6.112 2.196-4.236.603-8.765-.211-12.352-3.047a1.278 1.278 0 0 1-.067-.055c-1.065 1.404-2.724 2.542-4.62 3.242-2.015.74-4.304.97-6.54.7A16.012 16.012 0 0 1 1956 8.264a14.31 14.31 0 0 1-4.555-4.36c-.203-.29-.425-.597-.472-.74l-.282-.566c-.098-.345-.188-.012-.283.112a2.95 2.95 0 0 1-.15.233l-.211.314a17.485 17.485 0 0 1-2.721 3.089c-2.038 1.827-4.48 3.177-7.1 3.859-2.636.746-5.447.418-7.973-.441-2.512-.884-4.972-2.322-6.49-4.62a2.485 2.485 0 0 1-.12-.25c-.028.084-.067.18-.119.289-1.256 2.36-3.54 3.86-5.869 4.815-2.361.944-4.945 1.35-7.518 1.002-2.764-.442-5.347-1.61-7.56-3.301a17.79 17.79 0 0 1-2.988-2.916c-.222-.27-.436-.546-.634-.836l-.302-.429-.22-.352c-.11-.144-.203-.621-.372-.153l-.2.339-.057.093-.131.175-.264.348c-.354.46-.682.94-1.112 1.32-.785.832-1.685 1.523-2.627 2.106-1.891 1.167-3.985 1.872-6.112 2.196-4.236.603-8.765-.211-12.352-3.047a1.278 1.278 0 0 1-.067-.055c-1.065 1.404-2.724 2.542-4.62 3.242-2.015.74-4.304.97-6.54.7a16.012 16.012 0 0 1-6.324-2.166 14.31 14.31 0 0 1-4.555-4.36c-.202-.29-.425-.597-.472-.74l-.282-.566c-.098-.345-.188-.012-.283.112-.046.079-.095.158-.15.233l-.21.314a17.49 17.49 0 0 1-2.722 3.089c-2.038 1.827-4.48 3.177-7.1 3.859-2.636.746-5.446.418-7.973-.441-2.512-.884-4.971-2.322-6.49-4.62a2.484 2.484 0 0 1-.12-.25c-.028.084-.067.18-.119.289-1.256 2.36-3.54 3.86-5.868 4.815-2.362.944-4.945 1.35-7.52 1.002-2.763-.442-5.346-1.61-7.559-3.301a17.79 17.79 0 0 1-2.988-2.916 11.76 11.76 0 0 1-.634-.836l-.302-.429-.22-.352c-.11-.144-.203-.621-.371-.154l-.2.34-.058.093-.131.175-.264.348c-.354.46-.682.94-1.112 1.32-.785.832-1.685 1.523-2.627 2.106-1.891 1.167-3.985 1.872-6.112 2.196-4.236.603-8.765-.211-12.352-3.047a1.28 1.28 0 0 1-.067-.055c-1.065 1.404-2.724 2.542-4.62 3.241-2.015.742-4.304.97-6.54.7a16.011 16.011 0 0 1-6.324-2.165 14.31 14.31 0 0 1-4.555-4.36c-.202-.29-.425-.597-.472-.74l-.282-.566c-.098-.345-.188-.012-.283.112-.046.079-.095.157-.15.233l-.21.314a17.48 17.48 0 0 1-2.722 3.089c-2.037 1.827-4.48 3.177-7.1 3.859-2.636.746-5.446.418-7.973-.441-2.511-.884-4.971-2.322-6.49-4.62a2.652 2.652 0 0 1-.073-.143 2.656 2.656 0 0 1-.073.143c-1.519 2.298-3.978 3.736-6.49 4.62-2.526.86-5.337 1.187-7.973.44-2.62-.68-5.062-2.031-7.1-3.858a17.475 17.475 0 0 1-2.72-3.089l-.213-.314a2.984 2.984 0 0 1-.15-.233c-.094-.124-.184-.457-.282-.112l-.282.566c-.047.143-.27.45-.472.74a14.308 14.308 0 0 1-4.555 4.36 16.01 16.01 0 0 1-6.324 2.165c-2.236.27-4.525.042-6.54-.7-1.896-.699-3.555-1.837-4.62-3.24l-.067.054c-3.587 2.836-8.116 3.65-12.352 3.047-2.127-.324-4.22-1.03-6.112-2.196-.942-.583-1.842-1.274-2.627-2.106-.43-.38-.758-.86-1.112-1.32l-.263-.348-.132-.175-.057-.093-.2-.34c-.169-.467-.262.01-.372.154l-.22.352-.302.429c-.198.29-.412.566-.634.836a17.791 17.791 0 0 1-2.988 2.916c-2.213 1.69-4.796 2.859-7.56 3.301-2.573.348-5.157-.058-7.518-1.002-2.328-.954-4.613-2.456-5.869-4.815a2.516 2.516 0 0 1-.118-.289 2.484 2.484 0 0 1-.12.25c-1.52 2.298-3.979 3.736-6.49 4.62-2.527.86-5.338 1.187-7.974.44-2.62-.68-5.062-2.031-7.1-3.858a17.49 17.49 0 0 1-2.72-3.089l-.212-.314a2.95 2.95 0 0 1-.15-.233c-.095-.124-.185-.457-.283-.112l-.281.566c-.048.143-.27.45-.473.74a14.31 14.31 0 0 1-4.555 4.36 16.011 16.011 0 0 1-6.324 2.165c-2.236.27-4.525.042-6.54-.7-1.896-.699-3.555-1.837-4.62-3.24l-.067.054c-3.587 2.836-8.116 3.65-12.352 3.047-2.127-.324-4.22-1.03-6.112-2.196-.942-.583-1.842-1.274-2.627-2.106-.43-.38-.758-.86-1.112-1.32l-.263-.348-.132-.175-.057-.093-.2-.34c-.168-.467-.262.01-.372.154l-.22.352-.302.429c-.198.29-.412.566-.634.836a17.795 17.795 0 0 1-2.988 2.916c-2.213 1.69-4.796 2.859-7.56 3.301-2.573.348-5.157-.058-7.518-1.002-2.328-.954-4.613-2.456-5.869-4.815a2.514 2.514 0 0 1-.118-.289 2.483 2.483 0 0 1-.12.25c-1.52 2.298-3.979 3.736-6.49 4.62-2.527.86-5.337 1.187-7.974.44-2.619-.68-5.062-2.031-7.1-3.858a17.485 17.485 0 0 1-2.72-3.089l-.212-.314a2.95 2.95 0 0 1-.15-.233c-.095-.124-.185-.457-.283-.112l-.281.566c-.048.143-.27.45-.472.74a14.312 14.312 0 0 1-4.555 4.36 16.012 16.012 0 0 1-6.324 2.165c-2.237.27-4.526.042-6.54-.7-1.897-.699-3.556-1.837-4.62-3.24l-.068.054c-3.587 2.836-8.116 3.65-12.352 3.047-2.126-.324-4.22-1.03-6.112-2.196-.942-.583-1.842-1.274-2.627-2.106-.43-.38-.758-.86-1.112-1.32l-.263-.348-.132-.175-.057-.093-.2-.34c-.168-.467-.262.01-.372.154l-.22.352-.302.429c-.198.29-.412.566-.634.836a17.786 17.786 0 0 1-2.988 2.916c-2.213 1.69-4.796 2.859-7.56 3.301-2.573.348-5.157-.058-7.518-1.002-2.328-.954-4.613-2.456-5.869-4.815a2.516 2.516 0 0 1-.118-.289 2.484 2.484 0 0 1-.12.25c-1.519 2.298-3.979 3.736-6.49 4.62-2.527.86-5.337 1.187-7.973.44-2.62-.68-5.063-2.031-7.1-3.858a17.485 17.485 0 0 1-2.721-3.089l-.212-.314a2.95 2.95 0 0 1-.15-.233c-.095-.124-.185-.457-.283-.112l-.281.566c-.047.143-.27.45-.472.74a14.31 14.31 0 0 1-4.555 4.36 16.01 16.01 0 0 1-6.324 2.165c-2.237.27-4.526.042-6.54-.7-1.896-.699-3.556-1.837-4.62-3.24a1.28 1.28 0 0 1-.067.054c-3.587 2.836-8.117 3.65-12.353 3.047-2.126-.324-4.22-1.03-6.111-2.196-.942-.583-1.843-1.274-2.628-2.106-.43-.38-.757-.86-1.111-1.32l-.264-.348-.132-.175-.056-.093-.201-.34c-.168-.467-.261.01-.372.154l-.22.352-.301.429c-.199.29-.413.566-.635.836a17.787 17.787 0 0 1-2.988 2.916c-2.213 1.691-4.795 2.859-7.56 3.301-2.573.348-5.156-.058-7.518-1.002-2.328-.954-4.612-2.456-5.868-4.815a2.518 2.518 0 0 1-.119-.289 2.485 2.485 0 0 1-.12.25c-1.519 2.298-3.979 3.736-6.49 4.62-2.527.86-5.337 1.187-7.973.44-2.62-.68-5.063-2.031-7.1-3.858a17.486 17.486 0 0 1-2.721-3.089l-.212-.314a2.889 2.889 0 0 1-.15-.233c-.094-.124-.184-.457-.282-.112l-.282.566c-.047.143-.27.45-.472.74a14.31 14.31 0 0 1-4.555 4.36 16.011 16.011 0 0 1-6.324 2.165c-2.236.27-4.526.042-6.54-.7-2.008-.74-3.75-1.973-4.803-3.493-1.052 1.52-2.794 2.753-4.802 3.494-2.015.74-4.304.97-6.54.7a16.01 16.01 0 0 1-6.324-2.166 14.31 14.31 0 0 1-4.555-4.36c-.203-.29-.425-.597-.472-.74l-.282-.566c-.098-.345-.188-.012-.283.112-.046.079-.095.158-.15.233l-.211.314a17.485 17.485 0 0 1-2.721 3.089c-2.038 1.827-4.481 3.177-7.1 3.859-2.636.746-5.447.418-7.973-.441-2.512-.884-4.972-2.322-6.49-4.62-.475-.865-.151-1.329.408-.565 1.394 1.752 3.45 2.917 5.578 3.752 2.14.822 4.483 1.263 6.709 1.027 2.454-.315 4.884-1.328 6.954-2.828a16.946 16.946 0 0 0 2.844-2.605c.215-.243.423-.491.616-.753l.296-.386.338-.494.888-1.428.215-.347c.017-.021.036-.073.052-.07l.045.09.09.179.356.71.579 1.159.14.278.112.165.225.332c.302.44.576.904.955 1.28.681.818 1.485 1.525 2.344 2.14 1.726 1.228 3.717 2.055 5.788 2.47 2.072.416 4.238.39 6.318-.1 2.073-.491 4.074-1.49 5.64-3.02.166-.151.32-.209.413-.196.094-.013.247.045.413.197 1.566 1.53 3.568 2.528 5.641 3.019 2.08.49 4.245.516 6.318.1 2.07-.415 4.062-1.242 5.787-2.47.86-.615 1.664-1.322 2.345-2.14.379-.376.653-.84.955-1.28l.224-.332.113-.165.14-.278.579-1.159.356-.71.09-.18.044-.088c.017-.004.036.048.053.07l.214.346.888 1.428.338.494.296.386c.194.262.401.51.616.753a16.95 16.95 0 0 0 2.844 2.605c2.07 1.5 4.5 2.513 6.955 2.828 2.225.236 4.57-.205 6.709-1.027 2.127-.835 4.183-2 5.578-3.752.37-.505.636-.473.637-.144.166.02.431.233.66.59 1.617 2.117 4.04 3.392 6.496 4.184 2.478.765 5.148 1.04 7.64.315 2.505-.669 4.852-1.97 6.794-3.737a16.144 16.144 0 0 0 2.573-2.984c.16-.239.506-.785.723-1.172.244-.338.512-1.207.713-.43l.656 1.233c.106.183.23.47.322.57l.29.39c1.065 1.52 2.627 2.843 4.451 3.732 1.823.897 3.868 1.41 5.904 1.568 4.053.319 7.93-.726 10.956-2.505-.175-.264.067-.36.378-.117a1.183 1.183 0 0 1 .069.059c1.566 1.53 3.567 2.528 5.64 3.019 2.08.49 4.246.516 6.318.1 2.072-.415 4.063-1.242 5.788-2.47.86-.615 1.664-1.322 2.345-2.14.379-.376.653-.84.954-1.28l.225-.332.113-.165.14-.278.579-1.159.355-.71.09-.18.045-.088c.017-.004.035.048.053.07l.214.346.888 1.428.338.494.296.386c.194.262.401.51.616.753a16.94 16.94 0 0 0 2.844 2.605c2.07 1.5 4.5 2.513 6.955 2.828 2.225.236 4.57-.205 6.708-1.027 2.128-.835 4.184-2 5.579-3.752.37-.505.636-.473.637-.144.166.02.431.233.66.59 1.617 2.117 4.04 3.392 6.496 4.184 2.478.765 5.147 1.04 7.639.315 2.506-.669 4.852-1.97 6.795-3.737a16.144 16.144 0 0 0 2.573-2.984c.16-.239.506-.785.723-1.172.244-.338.512-1.207.713-.43l.656 1.233c.105.183.23.47.322.57l.29.39c1.065 1.52 2.627 2.843 4.45 3.732 1.824.897 3.87 1.41 5.905 1.568 4.053.319 7.93-.726 10.956-2.505-.175-.264.066-.36.377-.117a1.177 1.177 0 0 1 .07.059c1.566 1.53 3.567 2.528 5.64 3.019 2.08.49 4.246.516 6.318.1 2.072-.415 4.063-1.242 5.788-2.47.86-.615 1.663-1.322 2.345-2.14.379-.376.653-.84.954-1.28l.225-.332.112-.165.14-.278.58-1.16.355-.709.09-.18.045-.088c.016-.004.035.048.053.07l.214.346.888 1.428.338.494.296.386c.193.262.401.51.616.753a16.944 16.944 0 0 0 2.844 2.605c2.07 1.5 4.5 2.513 6.954 2.828 2.226.236 4.57-.205 6.71-1.027 2.127-.835 4.183-2 5.578-3.752.37-.505.636-.473.637-.144.166.02.431.233.66.59 1.616 2.117 4.04 3.392 6.496 4.184 2.478.765 5.147 1.04 7.639.315 2.506-.669 4.852-1.97 6.795-3.737a16.147 16.147 0 0 0 2.573-2.984c.16-.239.506-.785.723-1.172.244-.338.512-1.207.713-.43l.656 1.233c.105.183.23.47.322.57l.29.39c1.065 1.52 2.627 2.843 4.45 3.732 1.824.897 3.87 1.41 5.905 1.568 4.053.319 7.93-.726 10.956-2.505-.175-.264.066-.36.377-.117a1.176 1.176 0 0 1 .07.059c1.566 1.53 3.567 2.528 5.64 3.019 2.08.49 4.246.516 6.318.1 2.071-.415 4.063-1.242 5.788-2.47.86-.615 1.663-1.322 2.345-2.14.378-.376.653-.84.954-1.28l.225-.332.112-.165.14-.278.58-1.16.355-.709.09-.18.045-.088c.016-.004.035.048.053.07l.214.346.888 1.428.338.494.296.386c.193.262.401.51.616.753a16.949 16.949 0 0 0 2.844 2.605c2.07 1.5 4.5 2.513 6.954 2.828 2.226.236 4.57-.205 6.71-1.027 2.126-.835 4.183-2 5.578-3.752.37-.505.636-.473.637-.144.166.02.43.233.66.59 1.616 2.117 4.04 3.392 6.496 4.184 2.478.765 5.147 1.04 7.639.315 2.506-.669 4.852-1.97 6.795-3.737a16.148 16.148 0 0 0 2.573-2.984c.16-.239.506-.785.723-1.172.244-.338.511-1.207.713-.43l.655 1.233c.106.183.231.47.323.57l.29.39c1.065 1.52 2.627 2.843 4.45 3.732 1.823.897 3.869 1.41 5.905 1.568 4.053.319 7.93-.726 10.955-2.505-.174-.264.067-.36.378-.117a1.166 1.166 0 0 1 .07.059c1.566 1.53 3.567 2.528 5.64 3.019 2.08.49 4.246.516 6.318.1 2.071-.415 4.063-1.242 5.788-2.47.86-.615 1.663-1.322 2.344-2.14.38-.376.653-.84.955-1.28l.225-.332.112-.165.14-.278.58-1.16.355-.709.09-.18.045-.088c.016-.004.035.048.052.07l.215.346.888 1.428.338.494.296.386c.193.262.401.51.616.753a16.944 16.944 0 0 0 2.844 2.605c2.07 1.5 4.5 2.513 6.954 2.828 2.226.236 4.57-.205 6.709-1.027 2.127-.835 4.184-2 5.579-3.752.198-.27.366-.387.48-.386.114-.001.283.115.481.386 1.395 1.752 3.451 2.917 5.579 3.752 2.139.822 4.483 1.263 6.708 1.027 2.454-.315 4.885-1.328 6.955-2.828a16.954 16.954 0 0 0 2.844-2.605c.214-.243.422-.491.616-.753l.296-.386.338-.494.888-1.428.214-.347c.018-.021.036-.073.053-.07l.045.09.09.179.355.71.58 1.159.14.278.112.165.224.332c.302.44.576.904.955 1.28.681.818 1.485 1.525 2.345 2.14 1.725 1.228 3.716 2.055 5.788 2.47 2.072.416 4.238.39 6.317-.1 2.074-.491 4.075-1.49 5.641-3.02a1.176 1.176 0 0 1 .07-.058c.31-.242.552-.147.377.117 3.025 1.779 6.903 2.824 10.956 2.505 2.036-.159 4.081-.671 5.904-1.568 1.824-.89 3.386-2.211 4.45-3.732l.291-.39c.091-.1.216-.387.322-.57l.655-1.234c.202-.776.47.093.714.43.217.388.563.934.723 1.173a16.147 16.147 0 0 0 2.573 2.984c1.942 1.767 4.289 3.068 6.795 3.737 2.491.725 5.16.45 7.639-.315 2.456-.792 4.88-2.067 6.496-4.184.229-.357.494-.57.66-.59 0-.33.267-.36.637.144 1.395 1.752 3.451 2.917 5.578 3.752 2.14.822 4.484 1.263 6.71 1.027 2.453-.315 4.884-1.328 6.954-2.828a16.945 16.945 0 0 0 2.844-2.605c.214-.243.422-.491.616-.753l.296-.386.337-.494.889-1.428.214-.347c.017-.021.036-.073.053-.07l.044.09.09.179.356.71.579 1.159.14.278.113.165.224.332c.302.44.576.904.955 1.28.681.818 1.485 1.525 2.345 2.14 1.725 1.228 3.716 2.055 5.787 2.47 2.073.416 4.239.39 6.318-.1 2.074-.491 4.075-1.49 5.641-3.02a1.178 1.178 0 0 1 .07-.058c.31-.242.552-.147.377.117 3.025 1.779 6.903 2.824 10.956 2.505 2.036-.159 4.08-.671 5.904-1.568 1.824-.89 3.385-2.211 4.45-3.732l.29-.39c.092-.1.217-.387.323-.57l.655-1.234c.202-.776.47.093.714.43.217.388.562.934.723 1.173a16.147 16.147 0 0 0 2.573 2.984c1.942 1.767 4.289 3.068 6.795 3.737 2.491.725 5.16.45 7.639-.315 2.456-.792 4.879-2.067 6.496-4.184.228-.357.493-.57.66-.59 0-.33.267-.36.637.144 1.394 1.752 3.451 2.917 5.578 3.752 2.14.822 4.484 1.263 6.71 1.027 2.453-.315 4.883-1.328 6.954-2.828a16.94 16.94 0 0 0 2.843-2.605c.215-.243.423-.491.616-.752l.296-.387.338-.494.889-1.428.214-.347c.017-.021.036-.073.052-.07l.045.09.09.179.356.71.579 1.159.14.278.113.165.224.332c.302.44.576.904.955 1.28.681.818 1.485 1.525 2.344 2.14 1.726 1.228 3.717 2.055 5.788 2.47 2.073.416 4.239.39 6.318-.1 2.073-.491 4.075-1.49 5.641-3.02a1.181 1.181 0 0 1 .07-.058c.31-.242.552-.147.377.117 3.025 1.779 6.903 2.824 10.955 2.505 2.036-.159 4.082-.671 5.905-1.568 1.823-.89 3.385-2.211 4.45-3.732l.29-.39c.092-.1.217-.387.323-.57l.655-1.234c.202-.776.47.093.713.43.218.388.563.934.724 1.173a16.143 16.143 0 0 0 2.572 2.984c1.943 1.767 4.29 3.068 6.796 3.737 2.491.725 5.16.45 7.639-.315 2.456-.792 4.879-2.067 6.496-4.184.228-.357.493-.57.66-.59 0-.33.267-.36.637.144 1.394 1.752 3.45 2.917 5.578 3.752 2.14.822 4.484 1.263 6.709 1.027 2.454-.315 4.884-1.328 6.955-2.828a16.95 16.95 0 0 0 2.843-2.605c.215-.243.423-.491.616-.752l.296-.387.338-.494.889-1.428.214-.347c.017-.021.036-.073.052-.07l.045.09.09.179.356.71.579 1.159.14.278.113.165.224.332c.302.44.576.904.955 1.28.681.818 1.485 1.525 2.344 2.14 1.726 1.228 3.717 2.055 5.788 2.47 2.072.416 4.238.39 6.318-.1 2.073-.491 4.075-1.49 5.64-3.02a1.17 1.17 0 0 1 .07-.058c.311-.242.553-.147.378.117 3.025 1.779 6.903 2.824 10.955 2.505 2.036-.159 4.082-.671 5.905-1.568 1.823-.89 3.385-2.211 4.45-3.732l.29-.39c.092-.1.217-.387.323-.57l.655-1.234c.202-.776.47.093.713.43.218.388.563.934.724 1.173a16.143 16.143 0 0 0 2.572 2.984c1.943 1.767 4.29 3.068 6.795 3.737 2.492.725 5.161.45 7.64-.315 2.456-.792 4.879-2.067 6.495-4.184.23-.357.494-.57.66-.59.001-.33.268-.36.638.144z"/></g></g></svg>