<?xml version="1.0" standalone="no"?>
<!DOCTYPE svg PUBLIC "-//W3C//DTD SVG 20010904//EN"
 "http://www.w3.org/TR/2001/REC-SVG-20010904/DTD/svg10.dtd">
<svg version="1.0" xmlns="http://www.w3.org/2000/svg"
 width="29.000000pt" height="29.000000pt" viewBox="0 0 29.000000 29.000000"
 preserveAspectRatio="xMidYMid meet">

<g transform="translate(0.000000,29.000000) scale(0.100000,-0.100000)"
fill="#000000" stroke="none">
<path d="M185 259 c-38 -11 -94 -27 -124 -35 l-54 -15 99 -100 c64 -65 101
-94 105 -86 6 11 69 240 69 251 0 9 -20 6 -95 -15z m73 -16 c-36 -142 -54
-203 -58 -203 -9 0 -164 159 -159 163 6 5 191 55 208 56 8 1 12 -6 9 -16z"/>
</g>
</svg>
