<svg xmlns="http://www.w3.org/2000/svg" width="2000" height="772" viewBox="0 0 2000 772" fill="none"><mask id="mask0_3037_7898" style="mask-type:alpha" maskUnits="userSpaceOnUse" x="0" y="0" width="2000" height="772"><rect width="2000" height="772" fill="#C4C4C4"></rect></mask><g mask="url(#mask0_3037_7898)"><path fill-rule="evenodd" clip-rule="evenodd" d="M-151.377 108.669C-151.377 108.669 45.9046 -133.118 277.132 80.499C508.356 294.116 475.635 -121.751 751.632 40.6876C1011.79 229.38 1070.55 -138.126 1279.97 12.3022C1489.4 162.73 1449.38 -297.346 1668.07 -181.223L-188.575 -534.252L-151.377 108.669Z" fill="#F1F6FA"></path><path fill-rule="evenodd" clip-rule="evenodd" d="M221.38 535.702C221.38 535.702 401.599 841.06 730.057 666.647C1058.51 492.234 957.999 925.628 1328.22 816.557C1698.45 707.489 1632.64 1087.39 1919.97 975.529C2207.31 863.667 2050.67 1347.01 2341.05 1274.07L25.0001 1215.54L221.38 535.702Z" fill="#F1F6FA"></path><path fill-rule="evenodd" clip-rule="evenodd" d="M-512.349 239.227C-512.349 239.227 -389.569 571.864 -35.2408 458.923C319.084 345.981 142.778 754.453 526.531 713.264C910.284 672.076 777.679 1034.12 1080.37 975.374C1383.07 916.633 1142.61 1364.23 1441.35 1344.33L-827 873.06L-512.349 239.227Z" fill="#F1F6FA"></path><path d="M1995 408C1905 499.334 1810.9 582.992 1710.07 644.438C1677.37 664.361 1643.78 682.007 1608.85 689.901C1537.62 706 1465.39 680.859 1393.38 677.486C1301.92 673.197 1209.95 705.439 1129 768.684C1068.09 816.276 999.562 885.306 930.66 902.63C868.067 918.367 800.731 832.742 745.301 799.333C688.525 765.117 625.025 757.829 565.065 775.43C533.653 784.653 503.101 800.7 474.93 823.364C447.992 845.041 424.524 885.384 392.587 853.677C382.031 843.197 374.734 827.047 365.662 813.844C334.133 767.968 278.997 764.382 244.896 805.995" stroke="#C6D2DC" stroke-width="0.552088" stroke-miterlimit="10"></path><path d="M1991.03 410.864C1903.07 503.423 1809.94 587.959 1709.67 649.179C1676.28 669.598 1641.97 686.709 1606.43 695.519C1563.54 706.065 1520.21 702.156 1476.73 696.597C1447.06 692.804 1417.32 688.238 1387.61 686.961C1328.91 684.445 1270.01 695.332 1213.86 718.261C1181.02 731.67 1149.13 749.206 1118.74 770.697C1097.39 785.718 1075.19 803.119 1052.42 820.062C1020.4 843.823 987.236 866.654 953.542 881.276C941.446 886.545 929.285 890.757 917.111 893.524C866.783 904.914 813.47 856.677 765.515 821.191C752.659 811.632 740.19 802.99 728.254 796.656C679.198 770.387 625.698 763.795 573.916 775.237C565 777.204 556.132 779.707 547.338 782.738C515.978 793.541 485.452 810.994 457.034 834.445C440.204 848.337 424.594 869.015 407.421 875.548C396.848 879.573 385.732 878.161 373.367 866.667C362.564 856.625 354.854 841.107 345.444 828.356C312.783 784.028 257.205 780.119 222.123 821.197" stroke="#C6D2DC" stroke-width="0.552088" stroke-miterlimit="10"></path><path d="M1987.06 413.721C1901.15 507.511 1808.99 592.918 1709.26 653.912C1675.17 674.835 1640.16 691.41 1604 701.124C1560.56 712.643 1516.58 709.831 1472.42 705.045C1442.27 701.781 1412.03 697.596 1381.82 696.422C1322.15 694.087 1262.27 704.026 1205.18 724.89C1171.8 737.087 1139.39 753.05 1108.47 772.695C1086.7 786.388 1064.13 802.306 1041.03 817.733C1008.5 839.339 974.883 859.953 940.586 873.232C928.295 878.031 915.934 881.881 903.543 884.41C852.225 894.787 797.875 848.879 749.048 816.25C735.989 807.44 723.312 799.623 711.194 793.986C661.469 770.857 607.843 767.045 556.131 781.183C547.233 783.608 538.382 786.575 529.6 790.045C498.289 802.428 467.788 821.287 439.127 845.531C422.146 859.901 406.27 880.682 388.777 887.538C377.996 891.762 366.693 890.563 354.137 879.663C343.078 870.059 334.965 855.18 325.216 842.874C291.427 800.093 235.398 795.862 199.344 836.398" stroke="#C6D2DC" stroke-width="0.552088" stroke-miterlimit="10"></path><path d="M1983.09 416.579C1899.23 511.595 1808.04 597.885 1708.87 658.647C1674.07 680.066 1638.35 696.106 1601.59 706.735C1557.6 719.235 1512.97 717.513 1468.13 713.501C1437.49 710.773 1406.76 706.968 1376.05 705.884C1315.4 703.736 1254.53 712.721 1196.51 731.515C1162.59 742.505 1129.69 757.017 1098.21 774.689C1076.04 787.137 1053.07 801.481 1029.65 815.399C996.611 834.851 962.549 853.246 927.649 865.177C915.167 869.505 902.598 872.994 889.998 875.29C837.687 884.655 782.253 841.269 732.601 811.297C719.325 803.28 706.461 796.211 694.152 791.297C643.794 771.187 590.003 770.277 538.369 787.117C529.484 790.007 520.65 793.425 511.886 797.34C480.626 811.304 450.152 831.568 421.248 856.606C404.115 871.453 387.979 892.337 370.16 899.515C359.171 903.946 347.682 902.966 334.931 892.64C323.616 883.482 315.099 869.228 305.012 857.367C270.09 816.134 213.618 811.574 176.584 851.582" stroke="#C6D2DC" stroke-width="0.552088" stroke-miterlimit="10"></path><path d="M1979.13 419.442C1897.31 515.684 1807.08 602.851 1708.47 663.394C1672.97 685.316 1636.56 700.924 1599.17 712.353C1554.64 725.955 1509.36 725.201 1463.82 721.97C1432.72 719.77 1401.48 716.352 1370.27 715.365C1308.64 713.404 1246.79 721.441 1187.85 738.165C1153.38 747.942 1119.96 760.919 1087.95 776.708C1065.36 787.853 1042.02 800.681 1018.26 813.097C984.724 830.395 950.206 846.57 914.702 857.154C902.025 861.011 889.252 864.139 876.444 866.197C823.144 874.549 766.664 833.548 716.145 806.37C702.661 799.114 689.606 792.825 677.106 788.633C626.123 771.541 572.163 773.534 520.599 793.07C511.726 796.418 502.91 800.294 494.163 804.654C462.955 820.198 432.503 841.868 403.356 867.693C386.071 883.017 369.675 903.998 351.531 911.505C340.333 916.143 328.653 915.382 315.715 905.636C304.14 896.923 295.224 883.301 284.798 871.885C248.744 832.2 191.826 827.318 153.819 866.783" stroke="#C6D2DC" stroke-width="0.552088" stroke-miterlimit="10"></path><path d="M1975.16 422.299C1895.39 519.773 1806.13 607.817 1708.07 668.127C1671.87 690.546 1634.76 705.645 1596.74 717.957C1551.67 732.559 1505.74 732.875 1459.52 730.418C1427.94 728.754 1396.21 725.716 1364.49 724.82C1301.89 723.046 1239.06 730.128 1179.18 744.788C1144.16 753.36 1110.23 764.788 1077.69 778.7C1054.68 788.536 1030.99 799.945 1006.88 810.761C972.857 826.028 937.853 839.733 901.76 849.098C888.883 852.439 875.915 855.251 862.891 857.07C808.597 864.41 751.08 825.789 699.689 801.416C686 794.921 672.746 789.413 660.055 785.943C608.451 771.851 554.318 776.765 502.823 799.004C493.968 802.815 485.169 807.143 476.431 811.948C445.275 829.078 414.844 852.155 385.454 878.766C368.017 894.568 351.357 915.652 332.892 923.482C321.486 928.326 309.615 927.784 296.491 918.619C284.655 910.35 275.34 897.361 264.576 886.39C227.394 848.253 170.028 843.048 131.041 881.978" stroke="#C6D2DC" stroke-width="0.552088" stroke-miterlimit="10"></path><path d="M1971.19 425.163C1893.47 523.862 1805.18 612.783 1707.67 672.868C1670.77 695.79 1632.95 710.366 1594.32 723.575C1548.71 739.177 1502.12 740.557 1455.21 738.88C1423.16 737.745 1390.93 735.094 1358.72 734.295C1295.13 732.708 1231.32 738.842 1170.51 751.425C1134.95 758.784 1100.5 768.671 1067.43 780.706C1044 789.233 1019.94 799.146 995.496 808.44C960.969 821.571 925.514 833.019 888.818 841.056C875.75 843.919 862.574 846.383 849.341 847.957C794.058 854.284 735.504 818.043 683.236 796.469C669.344 790.736 655.898 786.002 643.008 783.267C590.789 772.173 536.478 780.01 485.052 804.944C476.21 809.214 467.428 813.999 458.708 819.243C427.604 837.953 397.199 862.436 367.562 889.841C349.973 906.12 333.052 927.307 314.262 935.459C302.651 940.509 290.577 940.193 277.27 931.602C265.17 923.785 255.46 911.415 244.362 900.889C206.047 864.3 148.235 858.766 108.276 897.168" stroke="#C6D2DC" stroke-width="0.552088" stroke-miterlimit="10"></path><path d="M1967.22 428.02C1891.54 527.944 1804.22 617.743 1707.27 677.602C1669.66 701.02 1631.14 715.074 1591.9 729.18C1545.73 745.775 1498.5 748.232 1450.91 747.329C1418.37 746.729 1385.65 744.459 1352.93 743.749C1288.37 742.35 1223.58 747.529 1161.84 758.048C1125.74 764.201 1090.76 772.541 1057.16 782.699C1033.3 789.916 1008.88 798.333 984.103 806.111C949.069 817.101 913.167 826.298 875.867 833.006C862.609 835.392 849.224 837.501 835.778 838.837C779.502 844.151 719.92 810.284 666.776 791.515C652.679 786.536 639.039 782.583 625.953 780.577C573.122 772.47 518.624 783.241 467.272 810.877C458.443 815.605 449.679 820.855 440.976 826.537C409.924 846.828 379.541 872.717 349.661 900.908C331.92 917.664 314.735 938.954 295.623 947.429C283.805 952.679 271.531 952.602 258.046 944.572C245.677 937.207 235.576 925.462 224.14 915.381C184.697 880.334 126.438 874.484 85.4987 912.343" stroke="#C6D2DC" stroke-width="0.552088" stroke-miterlimit="10"></path><path d="M1963.25 430.876C1889.62 532.033 1803.27 622.708 1706.87 682.342C1668.57 706.264 1629.34 719.788 1589.48 734.797C1542.77 752.378 1494.88 755.919 1446.61 755.797C1413.6 755.726 1380.38 753.843 1347.16 753.23C1281.62 752.017 1215.84 756.242 1153.17 764.697C1116.52 769.638 1081.02 776.423 1046.9 784.717C1022.62 790.618 997.826 797.545 972.723 803.802C937.181 812.657 900.832 819.603 862.925 824.976C849.471 826.885 835.887 828.639 822.229 829.736C764.963 834.037 704.352 802.537 650.323 786.581C636.023 782.356 622.192 779.183 608.911 777.906C555.468 772.772 500.788 786.491 449.51 816.83C440.698 822.022 431.951 827.723 423.257 833.85C392.257 855.721 361.895 883.016 331.772 912.001C313.88 929.234 296.434 950.621 276.997 959.425C264.97 964.881 252.493 965.043 238.835 957.574C226.196 950.666 215.705 939.534 203.93 929.905C163.355 896.406 104.649 890.233 62.7382 927.557" stroke="#C6D2DC" stroke-width="0.552088" stroke-miterlimit="10"></path><path d="M1959.28 433.741C1887.7 536.122 1802.32 627.675 1706.47 687.083C1667.46 711.501 1627.53 724.504 1587.05 740.409C1539.8 758.977 1491.25 763.602 1442.29 764.253C1408.81 764.717 1375.09 763.208 1341.38 762.692C1274.86 761.667 1208.1 764.943 1144.49 771.322C1107.31 775.056 1071.27 780.287 1036.63 786.717C1011.93 791.303 986.767 796.74 961.334 801.474C925.284 808.188 888.488 812.89 849.974 816.927C836.329 818.359 822.537 819.759 808.666 820.616C750.407 823.906 688.768 794.766 633.858 781.635C619.359 778.165 605.328 775.766 591.852 775.224C537.805 773.057 482.935 789.729 431.726 822.764C422.927 828.414 414.198 834.573 405.52 841.146C374.573 864.597 344.237 893.304 313.867 923.076C295.827 940.786 278.112 962.276 258.354 971.403C246.119 977.066 233.437 977.465 219.601 970.558C206.69 964.108 195.813 953.595 183.699 944.405C141.996 912.453 82.839 905.952 39.9517 942.741" stroke="#C6D2DC" stroke-width="0.552088" stroke-miterlimit="10"></path><path d="M1955.32 436.598C1885.78 540.205 1801.37 632.642 1706.07 691.817C1666.36 716.739 1625.73 729.212 1584.64 746.02C1536.83 765.575 1487.64 771.283 1437.99 772.709C1404.03 773.702 1369.81 772.58 1335.6 772.16C1268.1 771.322 1200.36 773.644 1135.82 777.959C1098.09 780.481 1061.53 784.15 1026.37 788.723C1001.24 791.987 975.708 795.94 949.945 799.159C913.383 803.725 876.145 806.189 837.028 808.898C823.192 809.852 809.191 810.897 795.112 811.516C735.864 813.793 673.201 787.008 617.402 776.701C602.698 773.986 588.476 772.36 574.801 772.554C520.152 773.341 465.09 792.98 413.951 828.717C405.165 834.832 396.453 841.443 387.793 848.46C356.898 873.491 326.583 903.604 295.974 934.163C277.783 952.351 259.808 973.944 239.724 983.393C227.281 989.262 214.395 989.907 200.386 983.554C187.201 977.569 175.924 967.701 163.486 958.923C120.607 928.655 61.0505 921.696 17.1826 957.949" stroke="#C6D2DC" stroke-width="0.552088" stroke-miterlimit="10"></path><path d="M1951.35 439.455C1883.86 544.294 1800.41 637.601 1705.67 696.551C1665.26 721.969 1623.92 733.914 1582.21 751.625C1533.86 772.16 1484.03 778.958 1433.69 781.157C1399.25 782.686 1364.54 781.944 1329.82 781.615C1261.34 780.964 1192.62 782.331 1127.15 784.582C1088.88 785.898 1051.79 788.001 1016.1 790.716C990.55 792.657 964.653 795.121 938.565 796.824C901.495 799.242 863.81 799.474 824.086 800.842C810.054 801.326 795.854 802.009 781.558 802.39C721.316 803.654 657.63 779.216 600.945 771.741C586.042 769.774 571.625 768.922 557.75 769.864C502.497 773.592 447.241 796.211 396.175 834.644C387.407 841.217 378.712 848.292 370.065 855.748C339.222 882.359 308.929 913.878 278.077 945.23C259.734 963.895 241.494 985.586 221.089 995.363C208.442 1001.44 195.344 1002.34 181.165 996.524C167.703 991.01 156.045 981.748 143.267 973.409C99.2606 944.688 39.253 937.407 -5.58679 973.125" stroke="#C6D2DC" stroke-width="0.552088" stroke-miterlimit="10"></path><path d="M1947.38 442.319C1881.94 548.383 1799.45 642.574 1705.27 701.298C1664.16 727.219 1622.11 738.629 1579.79 757.249C1530.89 778.765 1480.4 786.646 1429.38 789.626C1394.46 791.683 1359.26 791.329 1324.04 791.096C1254.58 790.632 1184.88 791.051 1118.48 791.232C1079.66 791.335 1042.04 791.877 1005.84 792.735C979.855 793.354 953.589 794.328 927.171 794.515C889.59 794.786 851.462 792.786 811.135 792.812C796.912 792.818 782.504 793.147 768 793.296C706.769 793.547 642.058 771.451 584.489 766.82C569.386 765.601 554.773 765.524 540.703 767.207C484.848 773.869 429.4 799.475 378.404 840.61C369.648 847.647 360.971 855.174 352.337 863.075C321.546 891.272 291.28 924.191 260.18 956.336C241.685 975.479 223.185 997.272 202.455 1007.37C189.599 1013.65 176.289 1014.8 161.941 1009.54C148.205 1004.5 136.16 995.841 123.045 987.946C77.91 960.78 17.4555 953.163 -28.3648 988.346" stroke="#C6D2DC" stroke-width="0.552088" stroke-miterlimit="10"></path><path d="M1943.41 445.176C1880.02 552.466 1798.43 647.256 1704.88 706.032C1663.03 732.327 1620.31 743.324 1577.37 762.853C1527.92 785.343 1476.79 794.321 1425.08 798.081C1389.69 800.674 1353.98 800.7 1318.26 800.558C1247.83 800.28 1177.15 799.745 1109.82 797.855C1070.45 796.753 1032.31 795.714 995.579 794.727C969.174 794.018 942.539 793.502 915.796 792.186C877.703 790.309 839.137 786.078 798.197 784.763C783.784 784.298 769.168 784.266 754.451 784.176C692.226 783.415 626.496 763.653 568.037 761.866C552.735 761.396 537.927 762.092 523.657 764.517C467.199 774.108 411.56 802.706 360.638 846.537C351.895 854.032 343.235 862.016 334.619 870.362C303.88 900.14 273.635 934.465 242.293 967.397C223.645 987.017 204.881 1008.91 183.83 1019.34C170.766 1025.82 157.247 1027.23 142.73 1022.51C128.716 1017.95 116.29 1009.89 102.84 1002.44C56.5775 976.827 -4.32821 968.881 -51.1204 1003.53" stroke="#C6D2DC" stroke-width="0.552088" stroke-miterlimit="10"></path><path d="M1939.44 448.033C1878.1 556.555 1797.47 652.216 1704.47 710.766C1661.92 737.558 1618.5 748.019 1574.95 768.458C1524.94 791.922 1473.17 801.996 1420.77 806.53C1384.9 809.652 1348.7 810.065 1312.48 810.02C1241.07 809.923 1169.4 808.446 1101.14 804.486C1061.23 802.171 1022.55 799.558 985.309 796.727C958.475 794.682 931.475 792.689 904.402 789.858C865.797 785.827 826.789 779.377 785.242 776.714C770.634 775.779 755.817 775.392 740.888 775.056C677.674 773.283 610.92 755.856 551.572 756.913C536.065 757.191 521.067 758.661 506.597 761.828C449.531 774.334 393.706 805.937 342.853 852.471C334.128 860.424 325.486 868.866 316.882 877.657C286.195 909.015 255.972 944.753 224.387 978.472C205.587 998.562 186.563 1020.56 165.186 1031.31C151.914 1038 138.182 1039.68 123.501 1035.49C109.205 1031.42 96.4058 1023.94 82.6133 1016.94C35.2224 992.874 -26.1302 984.605 -73.9028 1018.71" stroke="#C6D2DC" stroke-width="0.552088" stroke-miterlimit="10"></path><path d="M1935.48 450.896C1876.17 560.643 1796.52 657.188 1704.08 715.506C1660.82 742.794 1616.69 752.72 1572.53 774.075C1521.98 798.513 1469.55 809.684 1416.47 814.992C1380.12 818.649 1343.43 819.442 1306.71 819.487C1234.32 819.577 1161.67 817.146 1092.47 811.122C1052.02 807.6 1012.82 803.408 975.052 798.732C947.793 795.359 920.425 791.876 893.022 787.536C853.909 781.344 814.454 772.682 772.304 768.67C757.505 767.264 742.48 766.516 727.343 765.942C663.135 763.156 595.361 748.051 535.124 751.966C519.418 752.985 504.224 755.229 489.555 759.151C431.886 774.565 375.866 809.181 325.086 858.417C316.374 866.834 307.749 875.735 299.163 884.964C268.528 917.902 238.331 955.046 206.498 989.558C187.547 1010.13 168.262 1032.23 146.56 1043.3C133.08 1050.2 119.136 1052.15 104.285 1048.49C89.7111 1044.9 76.5304 1038.01 62.3994 1031.45C13.8805 1008.94 -47.9233 1000.34 -96.6678 1033.92" stroke="#C6D2DC" stroke-width="0.552088" stroke-miterlimit="10"></path><path d="M1931.51 453.754C1874.25 564.727 1795.64 662.426 1703.67 720.24C1659.75 748.161 1614.88 757.416 1570.1 779.68C1519 805.092 1465.93 817.359 1412.16 823.441C1375.34 827.627 1338.15 828.801 1300.93 828.949C1227.56 829.227 1153.93 825.841 1083.8 817.746C1042.8 813.012 1003.07 807.24 964.783 800.726C937.098 796.011 909.362 791.051 881.633 785.208C842.009 776.862 802.111 765.981 759.353 760.622C744.363 758.745 729.131 757.636 713.78 756.823C648.584 753.024 579.786 740.241 518.659 747.019C502.754 748.787 487.36 751.799 472.5 756.468C414.224 774.785 358.017 812.419 307.307 864.351C298.612 873.226 290 882.585 281.427 892.259C250.844 926.778 220.669 965.327 188.593 1000.63C169.49 1021.67 149.94 1043.88 127.922 1055.27C114.238 1062.37 100.076 1064.59 85.0604 1061.46C70.2093 1058.36 56.6554 1052.02 42.1774 1045.95C-7.44356 1024.83 -69.7203 1016.06 -119.445 1049.1" stroke="#C6D2DC" stroke-width="0.552088" stroke-miterlimit="10"></path><path d="M1927.54 456.612C1872.33 568.816 1794.69 667.393 1703.27 724.981C1658.65 753.399 1613.07 762.119 1567.68 785.299C1516.03 811.678 1462.31 825.041 1407.86 831.91C1370.56 836.631 1332.87 838.186 1295.15 838.424C1220.8 838.889 1146.18 834.555 1075.13 824.39C1033.58 818.45 993.326 811.091 954.517 802.738C926.407 796.689 898.306 790.239 870.243 782.893C830.111 772.386 789.766 759.294 746.406 752.586C731.225 750.238 715.788 748.768 700.226 747.717C634.035 742.905 564.214 732.431 502.206 742.08C486.097 744.588 470.512 748.368 455.453 753.792C396.565 775.005 340.175 815.664 289.535 870.298C280.853 879.638 272.263 889.447 263.703 899.561C233.172 935.659 203.023 975.615 170.7 1011.71C151.445 1033.23 131.635 1055.53 109.291 1067.26C95.3985 1074.56 81.0246 1077.06 65.8437 1074.45C50.7149 1071.84 36.7793 1066.08 21.9629 1060.45C-28.7861 1040.89 -91.5141 1031.79 -142.215 1064.29" stroke="#C6D2DC" stroke-width="0.552088" stroke-miterlimit="10"></path><path d="M1923.57 459.476C1870.41 572.906 1793.74 672.359 1702.88 729.722C1657.55 758.643 1611.27 766.814 1565.27 790.91C1513.06 818.257 1458.7 832.723 1403.56 840.366C1365.79 845.616 1327.6 847.557 1289.38 847.893C1214.05 848.544 1138.45 843.255 1066.47 831.027C1024.38 823.874 983.6 814.929 944.266 804.745C915.73 797.353 887.26 789.427 858.873 780.571C818.228 767.898 777.441 752.606 733.473 744.55C718.097 741.732 702.456 739.9 686.681 738.61C619.497 732.786 548.652 724.621 485.759 737.139C469.45 740.384 453.666 744.937 438.411 751.116C378.911 775.212 322.34 818.908 271.773 876.239C263.105 886.036 254.531 896.304 245.989 906.862C215.51 944.541 185.382 985.909 152.821 1022.78C133.414 1044.78 113.339 1067.19 90.6743 1079.24C76.5738 1086.74 61.9916 1089.53 46.6372 1087.43C31.2307 1085.33 16.9132 1080.14 1.75839 1074.96C-50.123 1056.93 -113.293 1047.52 -164.971 1079.49" stroke="#C6D2DC" stroke-width="0.552088" stroke-miterlimit="10"></path><path d="M1919.6 462.332C1868.49 576.988 1792.78 677.318 1702.48 734.456C1656.45 763.873 1609.45 771.503 1562.84 796.521C1510.08 824.835 1455.07 840.404 1399.25 848.821C1361 854.606 1322.31 856.928 1283.59 857.354C1207.29 858.192 1130.71 851.955 1057.79 837.65C1015.15 829.291 973.847 818.753 933.992 806.737C905.036 798.004 876.193 788.594 847.475 778.242C806.323 763.408 765.089 745.91 720.518 736.5C704.951 733.211 689.102 731.018 673.119 729.49C604.946 722.653 533.072 716.797 469.294 732.192C452.781 736.178 436.806 741.499 421.352 748.432C361.236 775.411 304.482 822.145 253.989 882.179C245.338 892.44 236.778 903.166 228.253 914.162C197.826 953.428 167.72 996.195 134.916 1033.86C115.357 1056.34 95.0218 1078.85 72.0314 1091.22C57.7225 1098.94 42.9278 1102.01 27.4085 1100.43C11.72 1098.83 -2.97491 1094.2 -18.4682 1089.48C-71.4776 1073 -135.099 1063.26 -187.753 1094.69" stroke="#C6D2DC" stroke-width="0.552088" stroke-miterlimit="10"></path><path d="M1915.64 465.189C1866.57 581.076 1791.83 682.284 1702.08 739.189C1655.35 769.109 1607.65 776.191 1560.42 802.125C1507.11 831.406 1451.46 848.079 1394.95 857.27C1356.22 863.584 1317.04 866.293 1277.82 866.815C1200.54 867.84 1122.97 860.649 1049.13 844.28C1005.95 834.709 964.119 822.583 923.74 808.736C894.358 798.662 865.151 787.768 836.099 775.914C794.44 758.912 752.758 739.215 707.58 728.451C691.818 724.697 675.769 722.137 659.569 720.369C590.402 712.52 517.5 708.966 452.842 727.238C436.129 731.959 419.955 738.054 404.31 745.749C343.573 775.611 286.646 825.382 236.222 888.112C227.584 898.831 219.046 910.015 210.529 921.456C180.15 962.302 150.075 1006.48 117.023 1044.94C97.3168 1067.89 76.7126 1090.5 53.4011 1103.2C38.8841 1111.12 23.8768 1114.48 8.19261 1113.4C-7.77356 1112.31 -22.8503 1108.26 -38.682 1103.97C-92.8238 1089.04 -156.888 1078.98 -210.518 1109.87" stroke="#C6D2DC" stroke-width="0.552088" stroke-miterlimit="10"></path><path d="M1911.67 468.053C1864.65 585.166 1790.88 687.251 1701.68 743.937C1654.24 774.353 1605.83 780.887 1558 807.749C1504.13 837.992 1447.84 855.774 1390.64 865.745C1351.44 872.594 1311.76 875.684 1272.04 876.296C1193.78 877.509 1115.23 869.363 1040.45 850.93C996.728 840.152 954.375 826.428 913.466 810.755C883.664 799.339 854.087 786.962 824.706 773.605C782.543 754.437 740.406 732.54 694.625 720.421C678.672 716.197 662.415 713.275 646.006 711.269C575.851 702.407 501.916 701.15 436.377 722.305C419.46 727.767 403.086 734.63 387.25 743.079C325.893 775.811 268.793 828.633 218.438 894.065C209.813 905.249 201.292 916.884 192.793 928.771C162.466 971.196 132.412 1016.78 99.1174 1056.02C79.2595 1079.45 58.395 1102.16 34.7582 1115.19C20.0372 1123.31 4.81723 1126.97 -11.0405 1126.4C-27.28 1125.82 -42.7428 1122.32 -58.9086 1118.49C-114.183 1105.1 -178.694 1094.72 -233.3 1125.07" stroke="#C6D2DC" stroke-width="0.552088" stroke-miterlimit="10"></path><path d="M1907.7 470.91C1862.72 589.248 1789.92 692.216 1701.28 748.67C1653.15 779.59 1604.02 785.575 1555.57 813.354C1501.16 844.557 1444.22 863.448 1386.33 874.193C1346.66 881.572 1306.48 885.042 1266.26 885.757C1187.02 887.157 1107.49 878.063 1031.78 857.553C987.514 845.563 944.639 830.245 903.205 812.747C872.982 799.984 843.033 786.13 813.322 771.276C770.651 749.941 728.068 725.851 681.683 712.372C665.535 707.683 649.074 704.4 632.453 702.155C561.304 692.281 486.341 693.313 419.925 717.357C402.805 723.555 386.236 731.185 370.204 740.395C308.223 775.997 250.953 831.871 200.672 900.005C192.064 911.646 183.556 923.739 175.074 936.071C144.799 980.077 114.767 1027.06 81.2297 1067.1C61.2199 1091.01 40.0908 1113.82 16.1328 1127.17C1.2036 1135.5 -14.2246 1139.45 -30.2515 1139.39C-46.7686 1139.33 -62.6133 1136.39 -79.1175 1132.99C-135.52 1121.16 -200.482 1110.44 -256.06 1140.27" stroke="#C6D2DC" stroke-width="0.552088" stroke-miterlimit="10"></path><path d="M1903.73 473.768C1860.81 593.338 1788.97 697.177 1700.88 753.405C1652.04 784.821 1602.18 790.116 1553.15 818.959C1498.14 850.969 1440.61 871.117 1382.03 882.643C1341.88 890.557 1301.21 894.407 1260.48 895.213C1180.27 896.8 1099.76 886.751 1023.11 864.178C978.303 850.982 934.908 834.064 892.944 814.741C862.301 800.629 831.982 785.298 801.942 768.942C758.768 745.44 715.711 719.293 668.741 704.317C652.393 699.202 635.737 695.513 618.903 693.03C546.765 682.143 470.765 685.471 403.473 712.405C386.149 719.338 369.384 727.742 353.158 737.706C290.551 776.179 233.108 835.103 182.901 905.933C174.306 918.032 165.82 930.59 157.347 943.36C127.124 988.946 97.1177 1037.34 63.3328 1078.17C43.1712 1102.56 21.7817 1125.47 -2.50162 1139.15C-17.6391 1147.68 -33.2755 1151.93 -49.4717 1152.37C-66.2665 1152.82 -82.493 1150.45 -99.3356 1147.49C-156.87 1137.2 -222.275 1126.17 -278.833 1155.46" stroke="#C6D2DC" stroke-width="0.552088" stroke-miterlimit="10"></path><path d="M1899.76 476.631C1858.88 597.427 1788.02 702.143 1700.48 758.146C1650.94 790.065 1600.37 794.825 1550.73 824.577C1495.17 857.56 1436.99 878.806 1377.73 891.105C1337.09 899.548 1295.93 903.785 1254.7 904.688C1173.51 906.462 1092.02 895.465 1014.44 870.821C969.087 856.412 925.176 837.902 882.683 816.753C851.618 801.294 820.953 784.402 790.556 766.627C746.91 740.841 703.367 712.598 655.799 696.281C639.26 690.695 622.395 686.645 605.349 683.923C532.217 672.023 455.185 677.641 387.016 707.464C369.488 715.133 352.524 724.304 336.111 735.036C272.875 776.372 215.267 838.353 165.13 911.886C156.548 924.45 148.079 937.459 139.623 950.674C109.452 997.84 79.4677 1047.64 45.4398 1089.26C25.1263 1114.12 3.4765 1137.13 -21.1322 1151.14C-36.478 1159.87 -52.3226 1164.42 -68.6923 1165.36C-85.7605 1166.33 -102.373 1164.51 -119.554 1162C-178.217 1153.26 -244.073 1141.9 -301.607 1170.65" stroke="#C6D2DC" stroke-width="0.552088" stroke-miterlimit="10"></path><path d="M1895.8 479.488C1856.96 601.509 1787.07 707.109 1700.09 762.886C1649.84 795.301 1598.56 799.526 1548.32 830.188C1492.2 864.151 1433.37 886.487 1373.43 899.566C1332.32 908.544 1290.65 913.162 1248.93 914.156C1166.75 916.116 1084.28 904.165 1005.77 877.457C959.876 861.842 915.444 841.726 872.418 818.759C840.937 801.951 809.898 783.589 779.168 764.311C735.013 736.365 691.024 705.909 642.848 688.244C626.114 682.188 609.046 677.776 591.791 674.816C517.67 661.903 439.596 669.804 370.555 702.523C352.823 710.927 335.66 720.866 319.056 732.359C255.187 776.559 197.418 841.597 147.35 917.825C138.786 930.847 130.33 944.314 121.891 957.974C91.7721 1006.72 61.8096 1057.93 27.543 1100.34C7.07771 1125.68 -14.8367 1148.79 -39.7665 1163.12C-55.3205 1172.06 -71.3734 1176.91 -87.9123 1178.35C-105.254 1179.85 -122.253 1178.57 -139.772 1176.51C-199.567 1169.32 -265.866 1157.63 -324.376 1185.85" stroke="#C6D2DC" stroke-width="0.552088" stroke-miterlimit="10"></path><path d="M1891.83 482.345C1855.04 605.598 1786.11 712.068 1699.68 767.619C1648.74 800.538 1596.75 804.221 1545.89 835.798C1489.22 870.736 1429.75 894.168 1369.12 908.022C1327.54 917.535 1285.37 922.533 1243.15 923.623C1160 925.771 1076.54 912.865 997.106 884.087C950.661 867.26 905.713 845.55 862.157 820.758C830.255 802.602 798.848 782.776 767.788 761.982C723.13 731.882 678.685 699.208 629.91 680.201C612.985 673.674 595.709 668.901 578.242 665.702C503.127 651.777 424.016 661.967 354.108 697.576C336.168 706.715 318.809 717.421 302.014 729.676C237.511 776.732 179.582 844.834 129.584 923.765C121.032 937.251 112.598 951.17 104.172 965.275C74.1055 1015.61 44.169 1068.22 9.65516 1111.42C-10.962 1137.24 -33.1368 1160.45 -58.392 1175.1C-74.1499 1184.25 -90.4111 1189.41 -107.123 1191.34C-124.738 1193.36 -142.123 1192.63 -159.981 1191.02C-220.908 1185.38 -287.654 1173.37 -347.141 1201.04" stroke="#C6D2DC" stroke-width="0.552088" stroke-miterlimit="10"></path><path d="M1887.86 485.208C1853.12 609.687 1785.16 717.041 1699.28 772.36C1647.64 805.775 1594.94 808.923 1543.47 841.41C1486.25 877.321 1426.13 901.849 1364.81 916.477C1322.75 926.519 1280.09 931.905 1237.37 933.091C1153.23 935.42 1068.8 921.572 988.429 890.724C941.441 872.69 896.003 849.272 851.888 822.77C819.591 803.189 787.789 781.97 756.394 759.667C711.229 727.412 666.337 692.513 616.955 672.164C599.835 665.167 582.359 660.033 564.679 656.595C488.575 641.658 408.375 653.944 337.642 692.642C319.485 702.465 301.94 713.99 284.954 727.006C219.814 776.926 161.724 848.085 111.804 929.712C103.265 943.656 94.8482 958.039 86.4356 972.583C56.421 1024.5 26.5061 1078.51 -8.25067 1122.5C-29.0197 1148.79 -51.4591 1172.11 -77.0354 1187.08C-93.0015 1196.44 -109.467 1201.91 -126.357 1204.32C-144.241 1206.89 -162.016 1206.7 -180.212 1205.53C-242.268 1201.44 -309.46 1189.1 -369.923 1216.24" stroke="#C6D2DC" stroke-width="0.552088" stroke-miterlimit="10"></path><path d="M1883.89 488.066C1851.2 613.77 1784.2 722.002 1698.88 777.094C1646.54 811.013 1593.13 813.625 1541.05 847.022C1483.28 883.907 1422.51 909.525 1360.51 924.933C1317.97 935.511 1274.82 941.277 1231.59 942.554C1146.48 945.069 1061.06 930.267 979.755 897.355C932.226 878.109 886.267 853.117 841.622 824.77C808.904 803.854 776.733 781.151 745.009 757.346C699.341 722.937 653.994 685.819 604.008 664.123C586.697 656.647 569.013 651.159 551.125 647.482C474.027 631.532 392.795 646.141 321.186 687.696C302.825 698.267 285.062 710.502 267.907 724.324C202.056 776.907 143.883 851.324 94.0323 935.653C85.5113 950.061 77.1073 964.895 68.7121 979.878C38.7495 1033.37 8.8606 1088.8 -26.1435 1133.57C-47.0644 1160.34 -69.7641 1183.76 -95.6657 1199.06C-111.84 1208.62 -128.509 1214.4 -145.573 1217.3C-163.726 1220.39 -181.892 1220.75 -200.422 1220.02C-263.61 1217.48 -331.249 1204.82 -392.688 1231.43" stroke="#C6D2DC" stroke-width="0.552088" stroke-miterlimit="10"></path><path d="M1879.92 490.924C1849.27 617.86 1783.25 726.962 1698.48 781.829C1645.44 816.244 1591.32 818.321 1538.62 852.627C1480.3 890.493 1418.89 917.201 1356.2 933.383C1313.19 944.489 1269.53 950.636 1225.81 952.016C1139.72 954.718 1053.32 938.962 971.087 903.979C923.011 883.527 876.531 856.954 831.361 826.764C798.223 804.519 765.679 780.333 733.625 755.011C687.449 718.448 641.655 679.112 591.066 656.067C573.56 648.121 555.672 642.271 537.571 638.357C459.484 621.394 377.215 638.331 304.73 682.737C286.165 694.049 268.203 707.058 250.857 721.634C184.385 777.14 126.039 854.549 76.2571 941.58C67.749 956.447 59.3668 971.739 50.9846 987.166C21.074 1042.24 -8.79309 1099.07 -44.0401 1144.64C-65.1129 1171.88 -88.0773 1195.41 -114.3 1211.03C-130.683 1220.8 -147.551 1226.89 -164.793 1230.28C-183.215 1233.9 -201.771 1234.8 -220.64 1234.52C-284.956 1233.52 -353.042 1220.54 -415.457 1246.61" stroke="#C6D2DC" stroke-width="0.552088" stroke-miterlimit="10"></path><path d="M1875.96 493.787C1847.36 621.948 1782.3 731.934 1698.09 786.575C1644.33 821.494 1589.51 823.029 1536.2 858.244C1477.33 897.083 1415.28 924.888 1351.89 941.85C1308.41 953.492 1264.26 960.019 1220.03 961.49C1132.96 964.379 1045.58 947.674 962.414 910.621C913.795 888.957 866.791 860.811 821.092 828.775C787.533 805.195 754.62 779.526 722.232 752.695C675.553 713.978 629.303 672.416 578.111 648.03C560.414 639.613 542.322 633.409 524.008 629.249C444.928 611.274 361.626 630.539 288.264 677.802C269.496 689.863 251.338 703.646 233.797 718.963C166.7 777.391 108.185 857.799 58.4731 947.532C49.9781 962.857 41.6132 978.607 33.2483 994.479C3.38986 1051.13 -26.4556 1109.37 -61.9457 1155.73C-83.1702 1183.45 -106.395 1207.07 -132.943 1223.02C-149.534 1232.99 -166.598 1239.44 -184.026 1243.27C-202.713 1247.49 -221.664 1248.87 -240.871 1249.04C-306.319 1249.58 -374.852 1236.28 -438.244 1261.82" stroke="#C6D2DC" stroke-width="0.552088" stroke-miterlimit="10"></path><path d="M1871.99 496.645C1845.43 626.031 1781.34 736.894 1697.69 791.31C1643.23 826.725 1587.71 827.725 1533.78 863.855C1474.36 903.669 1411.66 932.57 1347.59 950.307C1217.09 986.438 1080.56 976.247 953.746 917.252C868.439 877.567 788.084 817.263 710.852 750.367C663.665 709.496 616.968 665.716 565.173 639.982C469.953 592.674 363.232 611.145 271.817 672.849C180.402 734.553 103.348 836.825 40.7108 953.467C-16.134 1059.31 -67.191 1183.89 -151.564 1235C-248.06 1293.45 -360.188 1237.84 -461 1277" stroke="#C6D2DC" stroke-width="0.552088" stroke-miterlimit="10"></path><path d="M1856.74 -61.7052C1837.22 -145.905 1772.88 -219.01 1678.39 -264.359C1651.5 -277.26 1621.01 -288.205 1585.98 -288.128C1484.76 -287.899 1395.43 -211.721 1322.33 -162.942C1234.11 -104.08 1147.39 -43.8101 1053.84 10.5805C1001.31 41.1164 938.288 71.5862 878.779 65.8862C818.518 60.1118 786.228 19.9981 753.557 -13.811C715.49 -53.2079 667.766 -88.4301 605.589 -108.218C543.413 -128.005 465.253 -130.891 394.295 -107.654C338.729 -89.4559 291.97 -57.1905 250.239 -23.7968C140.595 63.9475 54.144 165.617 -1.19253 271.893" stroke="#C6D2DC" stroke-width="0.552088" stroke-miterlimit="10"></path><path d="M1858.94 -66.0967C1841.69 -140.514 1785.41 -203.621 1702.02 -249.075C1694.27 -253.296 1686.37 -257.377 1678.22 -261.232C1651.43 -273.89 1621.21 -284.669 1586.64 -284.769C1486.63 -285.088 1398.2 -211.962 1324.95 -164.249C1260.01 -121.948 1195.91 -78.3881 1128.7 -36.6875C1105.39 -22.187 1081.78 -7.93694 1057.74 5.94358C1005.59 36.0501 943.308 66.1367 884.43 61.2325C824.813 56.2649 792.268 18.0744 759.347 -14.0331C720.98 -51.4426 673.257 -84.8395 611.499 -103.375C589.996 -109.828 566.611 -114.307 542.288 -116.437C496.775 -120.431 447.971 -116.211 402.114 -101.33C347.031 -83.4553 300.451 -52.0734 258.777 -19.747C174.399 45.6692 103.547 118.504 49.3538 195.634C33.1798 218.649 18.493 242.042 5.38821 265.735" stroke="#C6D2DC" stroke-width="0.552088" stroke-miterlimit="10"></path><path d="M1861.14 -70.4833C1844.46 -142.42 1787.13 -201.002 1701.75 -246.2C1694 -250.301 1686.15 -254.318 1678.05 -258.096C1651.35 -270.507 1621.42 -281.124 1587.29 -281.405C1488.48 -282.273 1400.96 -212.199 1327.57 -165.549C1263.09 -124.57 1199.44 -81.8537 1132.14 -40.6625C1108.97 -26.4029 1085.51 -12.3685 1061.64 1.3148C1009.87 30.9952 948.321 60.6963 890.078 56.5869C831.103 52.4227 798.306 16.1555 765.138 -14.2483C726.478 -49.6717 678.746 -81.2408 617.411 -98.5219C596.053 -104.537 572.866 -108.653 548.77 -110.51C503.696 -114.001 455.393 -109.611 409.94 -94.9979C355.341 -77.4425 308.945 -46.9485 267.322 -15.6914C183.008 47.5602 111.999 117.393 56.9238 191.81C40.488 214.015 25.4729 236.621 11.9758 259.583" stroke="#C6D2DC" stroke-width="0.552088" stroke-miterlimit="10"></path><path d="M1863.34 -74.8739C1847.23 -144.329 1788.88 -198.393 1701.49 -243.33C1693.74 -247.318 1685.95 -251.268 1677.89 -254.966C1651.29 -267.134 1621.63 -277.58 1587.95 -278.044C1490.35 -279.459 1403.76 -212.439 1330.19 -166.853C1266.19 -127.197 1202.88 -85.4223 1135.6 -44.6405C1112.52 -30.651 1089.25 -16.803 1065.55 -3.31583C1014.15 25.9351 953.344 55.2542 895.741 51.9382C837.408 48.5774 804.359 14.2369 770.94 -14.4653C731.98 -47.9014 684.25 -77.6452 623.337 -93.6753C602.119 -99.2506 579.134 -103.007 555.266 -104.592C510.625 -107.58 462.834 -103.021 417.776 -88.6707C363.661 -71.4348 317.448 -41.8288 275.876 -11.6411C191.623 49.4504 120.46 116.277 64.5039 187.983C47.8063 209.379 32.4677 231.198 18.5791 253.431" stroke="#C6D2DC" stroke-width="0.552088" stroke-miterlimit="10"></path><path d="M1865.53 -79.261C1850 -146.236 1790.64 -195.793 1701.22 -240.455C1693.46 -244.326 1685.72 -248.212 1677.71 -251.83C1651.2 -263.75 1621.83 -274.035 1588.6 -274.68C1492.21 -276.643 1406.55 -212.672 1332.8 -168.152C1269.3 -129.814 1206.36 -88.9176 1139.04 -48.6147C1116.09 -34.8737 1092.98 -21.235 1069.45 -7.94385C1018.42 20.881 958.358 49.8169 901.383 47.2934C843.694 44.7394 810.391 12.3221 776.722 -14.6785C737.462 -46.1272 689.733 -74.049 629.238 -88.8237C608.163 -93.9639 585.382 -97.3558 561.736 -98.6698C517.535 -101.152 470.251 -96.423 425.585 -82.3416C371.949 -65.4274 325.92 -36.706 284.404 -7.58889C200.215 51.338 128.895 115.163 72.0523 184.156C55.088 204.744 39.4259 225.775 25.145 247.277" stroke="#C6D2DC" stroke-width="0.552088" stroke-miterlimit="10"></path><path d="M1867.73 -83.6502C1852.77 -148.145 1792.43 -193.203 1700.95 -237.583C1693.2 -241.343 1685.51 -245.156 1677.55 -248.699C1651.13 -260.376 1622.03 -270.493 1589.26 -271.316C1494.07 -273.826 1409.36 -212.906 1335.42 -169.45C1272.42 -132.423 1209.87 -92.4121 1142.49 -52.5869C1119.66 -39.0943 1096.72 -25.6637 1073.36 -12.5698C1022.71 15.8256 963.377 44.3794 907.038 42.6506C849.991 40.9 816.44 10.4082 782.515 -14.8897C742.96 -44.3555 695.228 -70.4475 635.152 -83.9667C614.221 -88.6686 591.638 -91.6986 568.218 -92.742C524.457 -94.7215 477.674 -89.8216 433.413 -76.0051C380.26 -59.4106 334.416 -31.5738 292.951 -3.52605C208.828 53.2395 137.349 114.06 79.6254 180.342C62.3992 200.12 46.4089 220.366 31.7356 241.136" stroke="#C6D2DC" stroke-width="0.552088" stroke-miterlimit="10"></path><path d="M1869.93 -88.0415C1855.55 -150.056 1794.25 -190.632 1700.69 -234.717C1692.94 -238.366 1685.3 -242.11 1677.38 -245.572C1651.06 -257.002 1622.24 -266.956 1589.91 -267.961C1495.93 -271.017 1412.2 -213.149 1338.04 -170.761C1275.56 -135.041 1213.37 -95.9174 1145.93 -56.5732C1123.23 -43.329 1100.45 -30.1065 1077.26 -17.2132C1026.98 10.7561 968.396 38.9233 912.687 37.9904C856.282 37.0431 822.479 8.47795 788.303 -15.1183C748.449 -42.5968 700.718 -66.8634 641.06 -79.1305C620.273 -83.394 597.893 -86.0633 574.696 -86.8317C531.368 -88.3074 485.097 -83.239 441.23 -69.6882C388.561 -53.4133 342.896 -26.4632 301.486 0.513986C217.428 55.115 145.791 112.934 87.1859 176.502C69.693 195.472 53.3792 214.93 38.3184 234.967" stroke="#C6D2DC" stroke-width="0.552088" stroke-miterlimit="10"></path><path d="M1872.12 -92.4281C1858.32 -151.96 1796.08 -188.065 1700.42 -231.841C1692.68 -235.382 1685.08 -239.054 1677.21 -242.436C1650.98 -253.622 1622.44 -263.41 1590.57 -264.593C1497.79 -268.2 1415.03 -213.372 1340.66 -172.056C1278.7 -137.64 1216.88 -99.4069 1149.38 -60.5413C1126.8 -47.5422 1104.18 -34.5344 1081.16 -21.8351C1031.26 5.7048 973.41 33.4899 918.336 33.3517C862.575 33.2112 828.518 6.56591 794.096 -15.3266C753.948 -40.8189 706.214 -63.259 646.978 -74.2719C626.336 -78.1004 604.154 -80.4044 581.183 -80.9023C538.295 -81.8755 492.531 -76.6339 449.058 -63.3489C396.872 -47.3968 351.391 -21.3314 310.028 4.57765C226.035 57.0173 154.24 111.831 94.7487 172.69C76.9941 190.85 60.3519 209.522 44.8988 228.828" stroke="#C6D2DC" stroke-width="0.552088" stroke-miterlimit="10"></path><path d="M1874.32 -96.8195C1861.09 -153.871 1797.94 -185.52 1700.16 -228.972C1692.43 -232.407 1684.87 -236.001 1677.04 -239.306C1650.91 -250.246 1622.64 -259.866 1591.22 -261.231C1499.66 -265.385 1417.9 -213.602 1343.28 -173.36C1281.87 -140.242 1220.39 -102.904 1152.83 -64.5223C1130.38 -51.7728 1107.91 -38.9719 1085.07 -26.4687C1035.54 0.645127 978.432 28.0436 923.989 28.7046C868.87 29.3675 834.561 4.64883 799.887 -15.5421C759.439 -39.0471 711.702 -59.6606 652.889 -69.4226C632.391 -72.8127 610.411 -74.7559 587.663 -74.9821C545.215 -75.4496 499.957 -70.0414 456.878 -57.0189C405.176 -41.3864 359.879 -16.2089 318.567 8.63409C234.638 58.9091 162.686 110.722 102.313 168.867C84.292 186.218 67.3255 204.1 51.4817 222.68" stroke="#C6D2DC" stroke-width="0.552088" stroke-miterlimit="10"></path><path d="M1876.52 -101.209C1863.86 -155.781 1799.82 -182.988 1699.89 -226.1C1692.17 -229.429 1684.66 -232.949 1676.87 -236.175C1650.84 -246.871 1622.85 -256.325 1591.88 -257.872C1501.52 -262.573 1420.77 -213.827 1345.9 -174.664C1285.05 -142.835 1223.91 -106.394 1156.28 -68.4983C1133.96 -55.9907 1111.65 -43.4045 1088.98 -31.0986C1039.82 -4.4142 983.45 22.6023 929.642 24.058C875.166 25.5242 840.604 2.73224 805.68 -15.7571C764.932 -37.2747 717.197 -56.063 658.802 -64.5695C638.448 -67.5213 616.666 -69.1026 594.145 -69.0582C552.131 -69.022 507.38 -63.4406 464.705 -50.6896C413.486 -35.38 368.368 -11.0859 327.112 12.6865C243.248 60.8002 171.137 109.608 109.884 165.042C91.6009 181.584 74.3062 198.679 58.0749 216.527" stroke="#C6D2DC" stroke-width="0.552088" stroke-miterlimit="10"></path><path d="M1878.72 -105.596C1866.64 -157.688 1801.72 -180.466 1699.62 -223.229C1691.92 -226.456 1684.44 -229.898 1676.7 -233.046C1650.76 -243.495 1623.05 -252.786 1592.53 -254.511C1503.38 -259.758 1423.65 -214.047 1348.51 -175.968C1288.23 -145.421 1227.42 -109.887 1159.72 -72.4781C1137.53 -60.2168 1115.37 -47.8408 1092.87 -35.7321C1044.09 -9.47387 988.461 17.156 935.283 19.4076C881.449 21.6772 846.635 0.811843 811.46 -15.9759C770.418 -35.5074 722.679 -52.469 664.702 -59.7234C644.491 -62.2402 622.907 -63.4596 600.614 -63.1414C559.038 -62.6026 514.795 -56.8515 472.514 -44.3629C421.774 -29.3717 376.844 -5.96669 335.639 16.7363C251.84 62.6855 179.571 108.488 117.432 161.213C98.8869 176.946 81.2638 193.255 64.6402 210.37" stroke="#C6D2DC" stroke-width="0.552088" stroke-miterlimit="10"></path><path d="M1880.91 -109.987C1869.41 -159.597 1803.64 -177.966 1699.35 -220.358C1691.66 -223.483 1684.23 -226.843 1676.53 -229.916C1650.69 -240.12 1623.25 -249.245 1593.19 -251.152C1505.24 -256.947 1426.56 -214.259 1351.13 -177.272C1291.44 -148.001 1230.94 -113.379 1163.17 -76.4557C1141.11 -64.4374 1119.11 -52.2749 1096.78 -40.3635C1048.38 -14.5346 993.484 11.7165 940.945 14.7582C887.755 17.8346 852.692 -1.112 817.262 -16.1903C775.92 -33.7377 728.183 -48.8708 670.628 -54.8743C650.562 -56.9527 629.181 -57.8113 607.11 -57.2181C565.973 -56.1768 522.236 -50.2558 480.349 -38.033C430.093 -23.3614 385.342 -0.843144 344.194 20.7926C260.461 64.5804 188.033 107.378 125.012 157.389C106.2 172.313 88.2538 187.835 71.2427 204.218" stroke="#C6D2DC" stroke-width="0.552088" stroke-miterlimit="10"></path><path d="M1883.11 -114.373C1872.18 -161.502 1805.58 -175.481 1699.09 -217.483C1691.42 -220.508 1684.02 -223.801 1676.36 -226.78C1650.65 -236.779 1623.46 -245.696 1593.85 -247.785C1507.1 -254.13 1429.47 -214.458 1353.76 -178.569C1294.66 -150.561 1234.47 -116.857 1166.62 -80.4279C1144.69 -68.6525 1122.85 -56.7081 1100.69 -44.9915C1052.66 -19.5888 998.502 6.27574 946.594 10.1133C894.045 13.9931 858.73 -3.02686 823.054 -16.4048C781.412 -31.9648 733.677 -45.2726 676.541 -50.0206C656.619 -51.6607 635.435 -52.1574 613.591 -51.2937C572.89 -49.7453 529.66 -43.6545 488.176 -31.6998C438.403 -17.3511 393.837 4.28251 352.739 24.8489C269.07 66.4721 196.485 106.268 132.583 153.569C113.51 167.683 95.235 182.419 77.8323 198.073" stroke="#C6D2DC" stroke-width="0.552088" stroke-miterlimit="10"></path><path d="M1885.31 -118.764C1874.95 -163.413 1807.54 -173.021 1698.82 -214.612C1691.17 -217.54 1683.81 -220.747 1676.2 -223.649C1650.58 -233.405 1623.66 -242.155 1594.5 -244.425C1508.96 -251.317 1432.41 -214.652 1356.37 -179.875C1297.89 -153.125 1237.99 -120.345 1170.07 -84.4078C1148.27 -72.8766 1126.58 -61.1445 1104.59 -49.6252C1056.94 -24.6519 1003.52 0.830582 952.246 5.46285C900.339 10.146 864.772 -4.94735 828.844 -16.6237C786.909 -30.1976 739.17 -41.6788 682.451 -45.1747C662.668 -46.3786 641.693 -46.5124 620.066 -45.3757C579.803 -43.3249 537.08 -37.0642 495.99 -25.3753C446.701 -11.3462 402.318 9.3995 361.271 28.8965C277.668 68.3584 204.924 105.15 140.136 149.738C120.796 163.044 102.197 176.992 84.4024 191.914" stroke="#C6D2DC" stroke-width="0.552088" stroke-miterlimit="10"></path><path d="M1887.5 -123.154C1877.73 -165.323 1809.52 -170.579 1698.56 -211.741C1690.92 -214.572 1683.59 -217.696 1676.02 -220.518C1650.5 -230.03 1623.86 -238.614 1595.16 -241.062C1510.82 -248.501 1435.35 -214.835 1358.99 -181.174C1301.13 -155.67 1241.52 -123.826 1173.51 -88.3829C1151.85 -77.0948 1130.31 -65.5762 1108.49 -54.2542C1061.21 -29.707 1008.54 -4.61103 957.894 0.817115C906.631 6.307 870.81 -6.86303 834.631 -16.8377C792.396 -28.4243 744.654 -38.079 688.358 -40.3207C668.719 -41.0862 647.942 -40.8581 626.542 -39.4509C586.719 -36.8976 544.502 -30.467 503.807 -19.0406C455.002 -5.33103 410.797 14.5279 369.803 32.9589C286.263 70.2562 213.362 104.046 147.693 145.923C128.091 158.42 109.164 171.582 90.9819 185.771" stroke="#C6D2DC" stroke-width="0.552088" stroke-miterlimit="10"></path><path d="M1889.7 -127.542C1880.5 -167.23 1811.53 -168.157 1698.29 -208.871C1690.68 -211.606 1683.39 -214.646 1675.86 -217.388C1650.44 -226.658 1624.07 -235.074 1595.81 -237.703C1512.69 -245.69 1438.32 -215.01 1361.61 -182.481C1304.39 -158.215 1245.04 -127.309 1176.96 -92.3622C1155.43 -81.3138 1134.04 -70.0121 1112.4 -58.8874C1065.49 -34.7696 1013.55 -10.0556 963.545 -3.83278C912.925 2.46051 876.851 -8.78634 840.422 -17.0561C797.892 -26.6566 750.147 -34.4847 694.273 -35.4754C674.779 -35.8027 654.204 -35.2137 633.027 -33.5316C593.638 -30.4745 551.928 -23.8708 511.637 -12.7125C463.315 0.67413 419.295 19.6484 378.351 37.0101C294.877 72.146 221.818 102.931 155.267 142.094C135.397 153.779 116.147 166.154 97.5732 179.615" stroke="#C6D2DC" stroke-width="0.552088" stroke-miterlimit="10"></path><path d="M1891.9 -131.932C1883.27 -169.138 1813.55 -165.76 1698.02 -205.999C1690.43 -208.641 1683.16 -211.593 1675.69 -214.255C1650.35 -223.277 1624.25 -231.487 1596.47 -234.339C1514.49 -242.749 1441.28 -215.163 1364.22 -183.779C1307.64 -160.735 1248.57 -130.781 1180.4 -96.3369C1159.01 -85.5294 1137.77 -74.4432 1116.3 -63.5157C1069.77 -39.8241 1018.57 -15.4967 969.194 -8.47803C919.211 -1.38013 882.889 -10.7016 846.214 -17.271C803.385 -24.8841 755.641 -30.8869 700.186 -30.6221C680.835 -30.5144 660.459 -29.5602 639.509 -27.6075C600.559 -24.0446 559.355 -17.2744 519.458 -6.38195C471.615 6.68635 427.778 24.7728 386.891 41.0638C303.481 74.0352 230.264 101.819 162.828 138.272C142.696 149.148 123.118 160.736 104.152 173.469" stroke="#C6D2DC" stroke-width="0.552088" stroke-miterlimit="10"></path><path d="M1894.1 -136.319C1886.05 -171.045 1815.6 -163.381 1697.76 -203.125C1690.2 -205.675 1682.95 -208.535 1675.52 -211.121C1650.29 -219.9 1624.46 -227.944 1597.13 -230.974C1516.36 -239.936 1444.28 -215.304 1366.85 -185.078C1310.93 -163.246 1252.12 -134.251 1183.86 -100.308C1162.61 -89.7385 1141.51 -78.8713 1120.21 -68.1399C1074.06 -44.8776 1023.6 -20.9324 974.854 -13.1157C925.514 -5.21111 888.944 -12.6104 852.013 -17.477C808.885 -23.1027 761.142 -27.2802 706.105 -25.7633C686.898 -25.2172 666.72 -23.9011 645.996 -21.6779C607.486 -17.6124 566.789 -10.669 527.286 -0.0423804C479.926 12.703 436.274 29.9081 395.438 45.1298C312.094 75.9398 238.713 100.72 170.4 134.458C150.002 144.525 130.105 155.325 110.747 167.326" stroke="#C6D2DC" stroke-width="0.552088" stroke-miterlimit="10"></path><path d="M1896.29 -140.709C1888.82 -172.958 1817.66 -161.029 1697.49 -200.253C1689.95 -202.711 1682.74 -205.483 1675.35 -207.988C1650.2 -216.519 1624.66 -224.4 1597.77 -227.612C1518.21 -237.119 1447.26 -215.426 1369.46 -186.381C1314.2 -165.749 1255.64 -137.722 1187.3 -104.289C1166.18 -93.9562 1145.23 -83.3113 1124.11 -72.7738C1078.33 -49.9377 1028.61 -26.3757 980.495 -17.7664C931.797 -9.0584 894.975 -14.5311 857.793 -17.6961C814.369 -21.339 766.623 -23.69 712.004 -20.9177C692.942 -19.9332 672.966 -18.2563 652.465 -15.7614C614.389 -11.1923 574.199 -4.07904 535.094 6.28065C488.218 18.7065 444.75 35.0236 403.964 49.1759C320.685 77.8214 247.146 99.5962 177.953 130.627C157.293 139.885 137.067 149.899 117.317 161.168" stroke="#C6D2DC" stroke-width="0.552088" stroke-miterlimit="10"></path><path d="M1898.49 -145.1C1891.59 -174.869 1819.74 -158.706 1697.22 -197.386C1689.72 -199.756 1682.52 -202.433 1675.19 -204.862C1650.14 -213.15 1624.87 -220.865 1598.44 -224.254C1520.08 -234.313 1450.27 -215.538 1372.09 -187.686C1317.49 -168.24 1259.19 -141.189 1190.75 -108.266C1169.77 -98.1714 1148.97 -87.7455 1128.02 -77.4086C1082.61 -55.0019 1033.63 -31.8218 986.152 -22.4179C938.097 -12.9065 901.021 -16.4559 863.589 -17.916C819.866 -19.5715 772.121 -20.0972 717.925 -16.0706C699.006 -14.6511 679.23 -12.609 658.956 -9.84029C621.318 -4.76863 581.635 2.51444 542.93 12.6105C496.538 24.7167 453.249 40.1472 412.519 53.2289C329.305 79.713 255.607 98.483 185.527 126.801C164.606 135.249 144.052 144.477 123.909 155.014" stroke="#C6D2DC" stroke-width="0.552088" stroke-miterlimit="10"></path><path d="M1900.69 -149.486C1894.36 -176.773 1821.84 -156.406 1696.96 -194.512C1689.48 -196.793 1682.31 -199.377 1675.01 -201.727C1650.06 -209.767 1625.07 -217.318 1599.09 -220.891C1521.93 -231.498 1453.29 -215.623 1374.7 -188.989C1320.79 -170.717 1262.73 -144.654 1194.19 -112.244C1173.35 -102.387 1152.7 -92.1811 1131.92 -82.0403C1086.89 -60.0597 1038.64 -37.2651 991.804 -27.0677C944.392 -16.7495 907.063 -18.3756 869.38 -18.1341C825.357 -17.8023 777.609 -16.5014 723.836 -11.224C705.062 -9.36614 685.487 -6.96324 665.435 -3.9228C628.238 1.65469 589.061 9.10758 550.75 18.9345C504.84 30.7179 461.735 45.2637 421.057 57.2794C337.908 81.5989 264.053 97.3673 193.091 122.972C171.903 130.611 151.026 139.052 130.496 148.856" stroke="#C6D2DC" stroke-width="0.552088" stroke-miterlimit="10"></path><path d="M1902.88 -153.877C1897.13 -178.683 1823.96 -154.134 1696.69 -191.64C1689.24 -193.838 1682.09 -196.326 1674.84 -198.595C1649.98 -206.388 1625.29 -213.814 1599.74 -217.527C1523.85 -228.798 1456.3 -215.683 1377.31 -190.287C1324.08 -173.173 1266.27 -148.112 1197.64 -116.216C1176.93 -106.593 1156.43 -96.6096 1135.82 -86.6661C1091.16 -65.1149 1043.66 -42.7035 997.453 -31.7102C950.683 -20.5887 913.102 -20.2882 875.172 -18.3463C830.855 -16.0283 783.104 -12.9009 729.749 -6.36798C711.119 -4.07183 691.742 -1.30696 671.917 2.00399C635.154 8.0852 596.489 15.7067 558.572 25.2712C513.142 36.7362 470.22 50.3941 429.593 61.3404C346.509 83.4986 272.496 96.2621 200.653 119.156C179.203 125.986 157.996 133.637 137.076 142.716" stroke="#C6D2DC" stroke-width="0.552088" stroke-miterlimit="10"></path><path d="M1905.08 -158.264C1899.91 -180.59 1826.1 -151.888 1696.43 -188.766C1689 -190.876 1681.88 -193.268 1674.68 -195.461C1649.91 -203.006 1625.5 -210.269 1600.4 -214.164C1525.72 -225.986 1459.34 -215.722 1379.94 -191.588C1327.39 -175.616 1269.82 -151.567 1201.09 -120.193C1180.53 -110.805 1160.17 -101.043 1139.73 -91.2957C1095.45 -70.1706 1048.68 -48.1446 1003.11 -36.3567C956.978 -24.4317 919.145 -22.2047 880.964 -18.5612C836.348 -14.2558 788.598 -9.30309 735.66 -1.51802C717.169 1.21436 698 4.33874 678.398 7.92472C642.073 14.5084 603.91 22.3011 566.398 31.6007C521.451 42.7461 478.713 55.516 438.137 65.393C355.117 85.3865 280.947 95.1485 208.217 115.33C186.5 121.351 164.971 128.215 143.663 136.561" stroke="#C6D2DC" stroke-width="0.552088" stroke-miterlimit="10"></path><path d="M1907.28 -162.654C1902.68 -182.499 1828.24 -149.676 1696.16 -185.898C1688.76 -187.925 1681.66 -190.219 1674.51 -192.333C1649.83 -199.631 1625.7 -206.732 1601.06 -210.804C1527.58 -223.174 1462.36 -215.735 1382.56 -192.894C1330.69 -178.048 1273.37 -155.026 1204.53 -124.171C1184.11 -115.017 1163.9 -105.481 1143.63 -95.9275C1099.72 -75.2319 1053.69 -53.5892 1008.75 -41.0053C963.269 -28.2737 925.186 -24.1278 886.75 -18.7781C841.834 -12.4855 794.086 -5.70743 741.572 3.33187C723.225 6.50259 704.253 9.98894 684.879 13.8487C648.989 20.9362 611.338 28.9008 574.218 37.9313C529.755 48.7538 487.201 60.6391 446.676 69.4467C363.722 87.279 289.393 94.0361 215.782 111.507C193.804 116.718 171.946 122.796 150.245 130.411" stroke="#C6D2DC" stroke-width="0.552088" stroke-miterlimit="10"></path><path d="M1909.48 -167.045C1905.45 -184.41 1830.42 -147.495 1695.89 -183.027C1688.53 -184.973 1681.44 -187.155 1674.34 -189.201C1649.72 -196.216 1625.9 -203.189 1601.71 -207.441C1529.43 -220.356 1465.4 -215.719 1385.17 -194.193C1333.99 -180.461 1276.92 -158.469 1207.98 -128.147C1187.7 -119.225 1167.63 -109.914 1147.54 -100.557C1104 -80.2878 1058.71 -59.0304 1014.41 -45.6519C969.564 -32.1168 931.228 -26.0443 892.541 -18.9931C847.331 -10.7176 799.579 -2.10968 747.483 8.18176C729.28 11.7908 710.507 15.6391 691.359 19.7694C655.908 27.3627 618.763 35.4938 582.038 44.2618C538.059 54.7647 495.684 65.7634 455.215 73.5037C372.326 89.1713 297.839 92.9269 223.347 107.683C201.102 112.087 178.92 117.377 156.827 124.26" stroke="#C6D2DC" stroke-width="0.552088" stroke-miterlimit="10"></path><path d="M1911.67 -171.432C1908.22 -186.315 1832.6 -145.342 1695.62 -180.153C1688.29 -182.015 1681.23 -184.098 1674.17 -186.071C1649.65 -192.84 1626.11 -199.646 1602.37 -204.082C1531.3 -217.545 1468.43 -215.674 1387.79 -195.5C1337.29 -182.863 1280.47 -161.919 1211.43 -132.127C1191.29 -123.436 1171.36 -114.35 1151.44 -105.194C1108.28 -85.3541 1063.73 -64.4767 1020.06 -50.3056C975.857 -35.9671 937.27 -27.9681 898.332 -19.2152C852.822 -8.95236 805.072 1.48088 753.393 13.0245C735.334 17.0685 716.764 21.2809 697.838 25.6829C662.827 33.7787 626.184 42.0841 589.857 50.5819C546.362 60.7652 504.17 70.8759 463.752 77.5469C380.928 91.0532 306.283 91.8039 230.905 103.851C208.398 107.445 185.888 111.949 163.409 118.102" stroke="#C6D2DC" stroke-width="0.552088" stroke-miterlimit="10"></path><path d="M1913.87 -175.823C1911 -188.226 1834.8 -143.224 1695.36 -177.283C1688.06 -179.065 1681.01 -181.047 1674 -182.94C1649.58 -189.465 1626.31 -196.105 1603.02 -200.719C1533.16 -214.729 1471.45 -215.596 1390.41 -196.8C1340.58 -185.242 1284.02 -165.356 1214.88 -136.103C1194.87 -127.64 1175.1 -118.783 1155.34 -109.823C1112.56 -90.409 1068.75 -69.917 1025.71 -54.9479C982.148 -39.8061 943.308 -29.8803 904.124 -19.4271C858.319 -7.17807 810.566 5.08166 759.305 17.8807C741.391 22.3631 723.018 26.9374 704.319 31.61C669.742 40.2095 633.611 48.6835 597.684 56.9177C554.672 66.7781 512.659 76.0054 472.297 81.6058C389.538 92.9475 314.734 90.6933 238.476 100.03C215.707 102.814 192.868 106.532 169.997 111.954" stroke="#C6D2DC" stroke-width="0.552088" stroke-miterlimit="10"></path><path d="M1916.07 -180.209C1913.77 -190.132 1837.02 -141.138 1695.09 -174.407C1687.82 -176.11 1680.79 -177.99 1673.83 -179.805C1649.5 -186.083 1626.52 -192.56 1603.68 -197.356C1535.02 -211.916 1474.47 -215.484 1393.03 -198.1C1343.87 -187.605 1287.58 -168.791 1218.33 -140.076C1198.47 -131.841 1178.83 -123.212 1159.25 -114.449C1116.84 -95.4647 1073.77 -75.356 1031.36 -59.591C988.445 -43.6424 949.351 -31.7967 909.916 -19.6386C863.812 -5.40221 816.055 8.68404 765.217 22.734C747.447 27.6547 729.277 32.5898 710.796 37.5352C676.657 46.6373 641.033 55.2812 605.5 63.2496C562.966 72.7916 521.143 81.1297 480.833 85.664C398.138 94.8444 323.176 89.5854 246.036 96.208C223 98.184 199.839 101.114 176.575 105.804" stroke="#C6D2DC" stroke-width="0.552088" stroke-miterlimit="10"></path><path d="M1918.27 -184.6C1916.55 -192.043 1839.25 -139.091 1694.83 -171.541C1687.59 -173.167 1680.58 -174.941 1673.67 -176.677C1649.43 -182.711 1626.72 -189.021 1604.34 -193.997C1536.88 -209.104 1477.48 -215.342 1395.65 -199.407C1347.15 -189.96 1291.14 -172.226 1221.77 -144.058C1202.06 -136.051 1182.57 -127.655 1163.16 -119.086C1121.12 -100.527 1078.79 -80.8039 1037.02 -64.2455C994.744 -47.4935 955.398 -33.7212 915.712 -19.8615C869.308 -3.63773 821.553 12.2739 771.138 27.5781C753.511 32.9339 735.54 38.2341 717.286 43.4534C683.588 53.0613 648.465 61.8762 613.33 69.5776C571.28 78.7968 529.641 86.2503 489.377 89.7165C406.748 96.7356 331.627 88.4717 253.601 92.3848C230.304 93.5511 206.813 95.6921 183.162 99.6526" stroke="#C6D2DC" stroke-width="0.552088" stroke-miterlimit="10"></path><path d="M1920.46 -188.99C1919.31 -193.951 1841.49 -137.078 1694.56 -168.67C1687.36 -170.22 1680.37 -171.889 1673.5 -173.547C1649.36 -179.334 1626.93 -185.478 1604.99 -190.637C1538.75 -206.291 1480.47 -215.165 1398.27 -200.709C1350.41 -192.294 1294.7 -175.649 1225.22 -148.035C1205.65 -140.253 1186.3 -132.088 1167.06 -123.716C1125.4 -105.587 1083.81 -86.2467 1042.67 -68.8924C1001.04 -51.337 961.441 -35.6381 921.503 -20.0767C874.806 -1.86684 827.047 15.8713 777.049 32.4276C759.567 38.2217 741.799 43.8828 723.766 49.3738C690.502 59.4854 655.891 68.469 621.156 75.9067C579.59 84.8062 538.129 91.373 497.921 93.7686C415.356 98.6231 340.078 87.3576 261.171 88.5568C237.606 88.9148 213.792 90.2684 189.75 93.5005" stroke="#C6D2DC" stroke-width="0.552088" stroke-miterlimit="10"></path><path d="M1922.66 -193.377C1922.08 -195.857 1843.75 -135.101 1694.29 -165.794C1687.12 -167.267 1680.15 -168.831 1673.32 -170.41C1649.28 -175.954 1627.12 -181.931 1605.64 -187.269C1540.6 -203.471 1483.44 -214.942 1400.88 -202.008C1353.66 -194.608 1298.28 -179.009 1228.66 -152.008C1209.24 -144.436 1190.02 -136.518 1170.96 -128.343C1129.67 -110.64 1088.82 -91.6857 1048.31 -73.5367C1007.33 -55.1746 967.478 -37.5536 927.285 -20.2894C880.288 -0.0922043 832.531 19.4712 782.952 37.283C765.614 43.5154 748.043 49.5384 730.238 55.2999C697.413 65.914 663.308 75.0675 628.967 82.2394C587.885 90.8194 546.608 96.5016 506.451 97.8278C423.952 100.521 348.516 86.2506 268.727 84.7392C244.901 84.2876 220.758 84.8551 196.328 87.3542" stroke="#C6D2DC" stroke-width="0.552088" stroke-miterlimit="10"></path><path d="M1924.86 -197.768C1924.86 -197.768 1846.03 -133.163 1694.03 -162.924C1542.03 -192.686 1478.2 -249.527 1232.11 -155.985C1062.06 -91.344 909.599 1.8737 736.727 61.2183C665.601 85.6345 588.634 101.406 514.999 101.879C432.565 102.408 356.971 85.1358 276.296 80.9116C252.203 79.6517 227.742 79.4306 202.915 81.1992" stroke="#C6D2DC" stroke-width="0.552088" stroke-miterlimit="10"></path></g></svg>