<svg xmlns="http://www.w3.org/2000/svg" width="14" height="20" viewBox="0 0 14 20" fill="none"><path fill-rule="evenodd" clip-rule="evenodd" d="M7 0C3.14453 0 0 3.14453 0 7C0 8.08281 0.442968 9.26953 1.05547 10.5219C1.66797 11.7797 2.46641 13.0922 3.27031 14.2898C4.86719 16.6906 6.45859 18.643 6.45859 18.643L7 19.3102L7.54141 18.643C7.54141 18.643 9.13281 16.6906 10.7352 14.2898C11.5336 13.0922 12.332 11.7797 12.9445 10.5219C13.557 9.26953 14 8.08281 14 7C14 3.14453 10.8555 0 7 0ZM7 1.4C10.1008 1.4 12.6 3.89922 12.6 7C12.6 7.65625 12.2555 8.74453 11.6867 9.90937C11.118 11.0797 10.3414 12.3484 9.57031 13.5187C8.39389 15.2809 7.56115 16.319 7.11405 16.8763L7.11404 16.8764L7.11361 16.8769C7.07246 16.9282 7.03458 16.9754 7 17.0187C6.9653 16.9753 6.92728 16.9279 6.88597 16.8764C6.43887 16.319 5.60613 15.2809 4.42969 13.5187C3.65859 12.3484 2.88203 11.0797 2.31328 9.90937C1.74453 8.74453 1.4 7.65625 1.4 7C1.4 3.89922 3.89922 1.4 7 1.4ZM5.6 7C5.6 6.22891 6.22891 5.6 7 5.6C7.77109 5.6 8.4 6.22891 8.4 7C8.4 7.77109 7.77109 8.4 7 8.4C6.22891 8.4 5.6 7.77109 5.6 7Z" fill="#FDFDFE"></path></svg>