<svg xmlns="http://www.w3.org/2000/svg" width="1440" height="384" viewBox="0 0 1440 384" fill="none"><mask id="mask0_2969_6624" style="mask-type:alpha" maskUnits="userSpaceOnUse" x="0" y="0" width="1440" height="384"><rect width="1440" height="383.734" transform="matrix(1 0 0 -1 0 383.734)" fill="#F8FAFD"></rect></mask><g mask="url(#mask0_2969_6624)"><path fill-rule="evenodd" clip-rule="evenodd" d="M-7.76345 99.2686C-7.76345 99.2686 242.753 493.354 520.472 162.928C798.187 -167.498 806.192 478.824 1140.64 231.945C1475.09 -14.9326 1503.86 546.173 1756.77 315.528C2009.68 84.8829 1975.16 816.576 2240.57 641.025L-32.9677 1122.57L-7.76345 99.2686Z" fill="#F1F6FA"></path><path d="M-244.69 673.256C-169.653 425.947 -54.2903 191.162 75.1124 22.4049C111.928 -25.6052 151.308 -69.5931 188.376 -84.2052C295.481 -126.415 340.968 52.028 386.946 159.555C442.434 289.308 495.415 423.695 559.446 538.492C595.393 602.942 642.507 662.759 709.245 621.378C776.827 579.468 836.937 451.913 893.38 342.095C959.149 214.129 1032.46 93.9251 1111.11 11.421C1189.77 -71.083 1274.46 -112.372 1334.65 -76.4488C1381.78 -48.314 1410.5 23.4869 1433.17 100.621C1492.71 303.298 1518.69 555.328 1508.73 833.612" stroke="#C6D2DC" stroke-width="0.552088" stroke-miterlimit="10"></path><path d="M-244.187 661.719C-177.871 443.145 -77.4968 240.154 40.2054 75.8011C51.1365 60.5365 62.147 45.6057 73.2707 31.211C109.827 -16.0683 148.805 -59.4657 185.51 -74.3925C291.688 -117.644 338.193 52.5149 385.013 156.952C426.521 249.546 466.323 346.072 510.63 435.997C525.97 467.294 541.784 497.754 558.3 526.981C594.128 590.37 640.703 649.413 706.26 610.558C772.639 571.211 831.777 449.009 887.387 343.916C952.19 221.465 1024.32 106.444 1101.72 27.6713C1128.67 0.245987 1156.35 -22.371 1183.49 -38.7174C1234.3 -69.3288 1283.29 -78.016 1322.28 -55.1864C1369.11 -27.7639 1398.21 41.605 1421.5 115.733C1468.69 265.719 1496.75 442.494 1504.39 638.518C1506.67 697.009 1507.14 757.2 1505.73 818.917" stroke="#C6D2DC" stroke-width="0.552088" stroke-miterlimit="10"></path><path d="M-243.681 650.197C-179.576 438.908 -81.0089 248.319 38.6338 83.8499C49.4936 68.9259 60.4032 54.1986 71.4299 40.0406C107.729 -6.49666 146.303 -49.3146 182.651 -64.5645C287.911 -108.867 335.417 53.0144 383.08 154.373C424.95 243.409 464.824 337.728 509.549 426.172C524.9 456.842 540.696 486.753 557.155 515.493C592.861 577.831 638.905 636.092 703.275 599.763C768.456 562.968 826.62 446.119 881.391 345.758C945.224 228.821 1016.18 118.986 1092.33 43.9535C1118.84 17.8338 1146.07 -3.67196 1172.8 -19.1445C1222.82 -48.1435 1271.17 -56.1325 1309.9 -33.8934C1356.42 -7.17318 1385.9 59.7526 1409.83 130.866C1458.35 274.735 1488.52 442.921 1498.84 630.867C1501.92 686.949 1503.24 744.769 1502.72 804.242" stroke="#C6D2DC" stroke-width="0.552088" stroke-miterlimit="10"></path><path d="M-243.177 638.663C-181.279 434.662 -84.5461 256.466 37.059 91.8874C47.849 77.2832 58.6546 62.7692 69.5813 48.8578C105.622 3.05133 143.794 -39.165 179.777 -54.7407C284.111 -100.086 332.61 53.5154 381.139 151.782C423.356 237.266 463.487 329.051 508.452 416.342C523.873 446.288 539.592 475.748 556 504.003C591.586 565.28 637.096 622.768 700.276 588.962C764.257 554.721 821.445 443.234 875.384 347.598C938.251 236.177 1008.03 131.524 1082.92 60.2217C1109 35.4088 1135.78 15.0132 1162.1 0.404628C1211.33 -26.9804 1259.03 -34.2742 1297.51 -12.6131C1343.73 13.4047 1373.59 77.8874 1398.16 145.986C1448 283.748 1480.27 443.335 1493.28 623.213C1497.16 676.885 1499.33 732.334 1499.7 789.573" stroke="#C6D2DC" stroke-width="0.552088" stroke-miterlimit="10"></path><path d="M-242.674 627.137C-182.988 430.422 -88.0989 264.595 35.4889 99.9342C46.2061 85.6596 56.9148 71.3503 67.7415 57.6854C103.525 12.6208 141.293 -29.016 176.916 -44.9162C280.324 -91.3045 329.8 54.034 379.208 149.201C421.756 231.15 462.044 320.605 507.372 406.515C522.822 435.807 538.501 464.744 554.856 492.513C590.32 552.74 635.291 609.454 697.293 578.165C760.072 546.486 816.286 440.352 869.393 349.441C931.294 243.534 999.894 144.054 1073.53 76.4934C1099.18 52.9764 1125.51 33.7003 1151.42 19.9572C1199.86 -5.80557 1246.91 -12.4026 1285.15 8.66112C1331.07 33.9681 1361.3 96.0174 1386.5 161.101C1437.67 292.745 1472.05 443.743 1487.75 615.544C1492.43 666.809 1495.45 719.885 1496.71 774.88" stroke="#C6D2DC" stroke-width="0.552088" stroke-miterlimit="10"></path><path d="M-242.168 615.607C-184.693 426.177 -91.664 272.705 33.9166 107.975C44.5597 94.0189 55.1701 79.9353 65.8955 66.5059C101.42 22.1722 138.79 -18.8728 174.049 -35.0877C276.531 -82.5186 326.969 54.5622 377.271 146.623C420.133 225.064 460.584 312.17 506.28 396.7C521.758 425.34 537.401 453.753 553.7 481.036C589.045 540.202 633.482 596.143 694.297 567.379C755.877 538.253 811.111 437.481 863.39 351.295C924.324 250.893 991.746 156.607 1064.13 92.7871C1089.35 70.5757 1115.23 52.4111 1140.72 39.5319C1188.37 15.3817 1234.78 9.48274 1272.76 29.9658C1318.38 54.5704 1348.99 114.186 1374.82 176.255C1427.32 301.791 1463.8 444.192 1482.18 607.924C1487.67 656.78 1491.55 707.485 1493.69 760.237" stroke="#C6D2DC" stroke-width="0.552088" stroke-miterlimit="10"></path><path d="M-241.663 604.07C-186.4 421.926 -95.2472 280.771 32.3466 116C42.9112 102.361 53.4262 88.4934 64.056 75.3117C99.3184 31.7187 136.289 -8.74562 171.187 -25.2849C272.748 -73.7571 324.126 55.0702 375.343 144.011C418.499 218.959 459.136 303.7 505.203 386.84C520.709 414.828 536.317 442.719 552.563 469.505C587.786 527.62 631.686 582.778 691.32 556.54C751.701 529.966 805.959 434.557 857.405 353.096C917.374 258.209 983.615 169.106 1054.75 109.018C1079.53 88.1117 1104.97 71.057 1130.04 59.053C1176.91 36.5167 1222.67 31.313 1260.4 51.2083C1305.71 75.1106 1336.7 132.285 1363.17 191.338C1417 310.756 1455.58 444.568 1476.65 600.223C1482.94 646.67 1487.67 695.003 1490.7 745.51" stroke="#C6D2DC" stroke-width="0.552088" stroke-miterlimit="10"></path><path d="M-241.157 592.547C-188.102 417.691 -98.8446 288.836 30.7783 124.05C41.2673 110.719 51.6884 97.078 62.214 84.1415C97.2219 41.2806 133.79 1.40698 168.325 -15.447C268.962 -64.9716 321.265 55.64 373.406 141.441C416.842 212.913 457.668 295.281 504.114 377.035C519.646 404.379 535.224 431.728 551.411 458.037C586.514 515.091 629.881 569.476 688.329 545.763C747.507 521.753 800.795 431.687 851.402 354.958C910.4 265.585 975.466 181.666 1045.34 125.318C1069.69 105.708 1094.68 89.7743 1119.34 78.6344C1165.42 57.7106 1210.53 53.2134 1248.02 72.5209C1293.02 95.711 1324.39 150.452 1351.5 206.492C1406.65 319.802 1447.34 445.017 1471.1 592.604C1478.19 636.642 1483.77 682.604 1487.69 730.868" stroke="#C6D2DC" stroke-width="0.552088" stroke-miterlimit="10"></path><path d="M-240.654 581.011C-189.81 413.441 -102.461 296.85 29.2036 132.086C39.6126 119.06 49.9368 105.656 60.3698 92.9577C95.1159 50.8375 131.281 11.5542 165.455 -5.62422C265.166 -56.1915 318.377 56.1991 371.47 138.849C415.163 206.87 456.205 286.84 503.025 367.195C518.581 393.885 534.128 420.712 550.263 446.536C585.244 502.539 628.075 556.141 685.338 534.964C743.317 513.506 795.629 428.802 845.403 356.799C903.436 272.941 967.327 194.206 1035.95 141.588C1059.86 123.284 1084.4 108.46 1108.65 98.1853C1153.94 78.8838 1198.4 75.0735 1235.65 93.8031C1280.34 116.291 1312.09 168.589 1339.83 221.624C1396.31 328.816 1439.11 445.443 1465.55 584.952C1473.45 626.582 1479.88 670.162 1484.68 716.202" stroke="#C6D2DC" stroke-width="0.552088" stroke-miterlimit="10"></path><path d="M-240.147 569.479C-191.515 409.194 -106.083 304.833 27.6325 140.124C37.9617 127.405 48.1961 114.229 58.5247 101.776C93.0165 60.388 128.779 21.6954 162.588 4.19118C261.378 -47.4174 315.478 56.7786 369.533 136.259C413.466 200.855 454.732 278.42 501.937 357.368C517.515 383.425 533.033 409.71 549.111 435.047C583.973 489.989 626.269 542.818 682.347 524.166C739.127 505.262 790.462 425.921 839.404 358.642C896.472 280.299 959.183 206.747 1026.55 157.87C1050.02 140.871 1074.13 127.159 1097.96 117.748C1142.46 100.061 1186.28 96.9569 1223.27 115.086C1267.66 136.862 1299.79 186.728 1328.16 236.748C1385.97 337.831 1430.87 445.86 1460 577.3C1468.69 616.521 1475.98 657.731 1481.66 701.526" stroke="#C6D2DC" stroke-width="0.552088" stroke-miterlimit="10"></path><path d="M-239.647 557.955C-193.226 404.956 -109.727 312.798 26.0615 148.163C36.3094 135.739 46.4513 122.801 56.6873 110.586C90.9172 69.9387 126.28 31.8268 159.73 14.0093C257.594 -38.6419 312.564 57.3749 367.608 133.661C411.764 194.859 453.265 269.991 500.864 347.524C516.463 372.937 531.952 398.69 547.974 423.541C582.714 477.433 624.475 529.478 679.371 513.352C734.951 497 785.31 423.022 833.42 360.467C889.518 287.639 951.053 219.27 1017.17 174.126C1040.21 158.422 1063.87 145.821 1087.29 137.285C1131 121.21 1174.17 118.802 1210.91 136.354C1255 157.428 1287.5 204.85 1316.51 251.855C1375.64 346.82 1422.66 446.252 1454.47 569.625C1463.97 606.437 1472.11 645.275 1478.68 686.827" stroke="#C6D2DC" stroke-width="0.552088" stroke-miterlimit="10"></path><path d="M-239.138 546.421C-194.93 400.707 -113.374 320.707 24.4917 156.2C34.6583 144.071 44.7091 131.382 54.8438 119.403C88.8193 79.4874 123.779 41.966 156.865 23.8227C253.802 -29.8711 309.622 58.0028 365.673 131.069C410.028 188.894 451.789 261.567 499.772 337.694C515.389 362.473 530.854 387.685 546.82 412.049C581.44 464.88 622.663 516.162 676.372 502.55C730.75 488.761 780.135 420.125 827.411 362.315C882.546 294.993 942.898 231.816 1007.76 190.402C1030.37 176.004 1053.58 164.513 1076.58 156.851C1119.5 142.389 1162.02 140.678 1198.52 157.642C1242.3 178.014 1275.19 222.994 1304.82 266.994C1365.29 355.85 1414.41 446.684 1448.91 561.979C1459.21 596.383 1468.2 632.849 1475.66 672.156" stroke="#C6D2DC" stroke-width="0.552088" stroke-miterlimit="10"></path><path d="M-238.633 534.898C-196.632 396.472 -117.033 328.582 22.9188 164.249C32.9997 152.413 42.9625 139.932 53.0014 128.233C86.7027 88.9581 121.272 52.1271 153.997 33.6593C250.012 -21.0869 306.663 58.6707 363.731 128.499C408.27 182.989 450.3 253.185 498.682 327.877C514.317 352.021 529.755 376.681 545.673 400.562C580.171 452.341 620.859 502.84 673.386 491.755C726.565 480.518 774.973 417.245 821.413 364.158C875.582 302.351 934.755 244.357 998.364 206.684C1020.53 193.592 1043.3 183.212 1065.89 176.415C1108.02 163.576 1149.9 162.562 1186.14 178.935C1229.62 198.595 1262.88 241.142 1293.15 282.127C1354.94 364.866 1406.17 447.111 1443.35 554.338C1454.45 586.332 1464.3 620.428 1472.64 657.501" stroke="#C6D2DC" stroke-width="0.552088" stroke-miterlimit="10"></path><path d="M-238.129 523.364C-198.339 392.223 -120.703 336.4 21.349 172.288C31.3473 160.735 41.216 148.514 51.1579 137.051C84.6004 98.5069 118.772 62.2677 151.136 43.4756C246.229 -12.312 303.683 59.3627 361.803 125.899C406.503 177.079 448.824 244.773 497.598 318.039C513.247 341.548 528.664 365.669 544.526 389.062C578.904 439.782 619.058 489.507 670.399 480.947C722.379 472.263 769.811 414.353 815.418 365.991C868.617 309.697 926.615 256.888 988.973 222.946C1010.71 211.151 1033.03 201.89 1055.21 195.959C1096.55 184.733 1137.78 184.416 1173.78 200.201C1216.95 219.159 1250.59 259.262 1281.5 297.233C1344.62 373.863 1397.95 447.511 1437.82 546.661C1449.73 576.248 1460.43 607.971 1469.65 642.8" stroke="#C6D2DC" stroke-width="0.552088" stroke-miterlimit="10"></path><path d="M-237.621 511.829C-200.042 387.974 -124.379 344.171 19.7792 180.324C29.6948 169.055 39.4769 157.084 49.3189 145.868C82.5025 108.055 116.271 72.4064 148.272 53.2995C242.439 -3.53066 300.681 60.0889 359.869 123.317C404.714 171.225 447.331 236.386 496.515 308.211C512.182 331.086 527.574 354.665 543.38 377.572C577.636 427.24 617.254 476.182 667.414 470.148C718.191 464.027 764.65 411.47 809.425 367.832C861.658 317.054 918.481 269.429 979.581 239.227C1000.89 228.738 1022.75 220.587 1044.52 215.521C1085.07 205.907 1125.66 206.287 1161.4 221.494C1204.27 239.749 1238.29 277.411 1269.84 312.377C1334.28 382.89 1389.72 447.949 1432.28 539.031C1444.98 566.208 1456.54 595.56 1466.65 628.145" stroke="#C6D2DC" stroke-width="0.552088" stroke-miterlimit="10"></path><path d="M-237.119 500.304C-201.753 383.735 -128.068 351.898 18.2053 188.361C28.0338 177.375 37.7287 165.654 47.4707 154.684C80.3956 117.602 113.766 82.5456 145.406 63.1143C238.647 5.24145 297.65 60.8508 357.937 120.717C402.909 165.379 445.841 227.992 495.432 298.374C511.113 320.624 526.483 343.652 542.232 366.072C576.369 414.68 615.453 462.85 664.427 459.341C714.005 455.773 759.49 408.568 803.43 369.665C854.694 324.401 910.34 281.959 970.186 255.488C991.054 246.304 1012.48 239.264 1033.83 235.072C1073.6 227.072 1113.53 228.158 1149.02 242.775C1191.59 260.318 1225.98 295.546 1258.16 327.498C1323.94 391.903 1381.48 448.364 1426.72 531.368C1440.23 556.127 1452.65 583.107 1463.64 613.458" stroke="#C6D2DC" stroke-width="0.552088" stroke-miterlimit="10"></path><path d="M-236.612 488.771C-203.453 379.489 -131.759 359.559 16.6385 196.4C26.383 185.687 35.9926 174.228 45.6347 163.504C78.3021 127.164 111.262 92.8021 142.545 72.9409C234.841 14.3503 294.604 61.6718 356.006 118.138C401.085 159.601 444.345 219.627 494.348 288.547C510.04 310.171 525.392 332.65 541.085 354.584C575.099 402.14 613.647 449.526 661.44 448.544C709.823 447.53 754.328 405.686 797.431 371.506C847.729 331.757 902.196 294.498 960.787 271.768C981.223 263.88 1002.2 257.961 1023.14 254.634C1062.11 248.256 1101.4 250.029 1136.65 264.059C1178.91 280.901 1213.69 313.685 1246.5 342.622C1313.6 400.908 1373.25 448.782 1421.18 523.718C1435.49 546.068 1448.76 570.677 1460.63 598.795" stroke="#C6D2DC" stroke-width="0.552088" stroke-miterlimit="10"></path><path d="M-236.113 477.247C-205.166 375.252 -135.461 367.177 15.0593 204.448C24.7197 194.008 34.241 182.82 43.7818 172.332C76.1904 136.723 108.747 102.951 139.667 82.7755C231.04 23.1325 291.525 62.5384 354.054 115.565C399.22 153.866 442.824 211.279 493.244 278.738C508.944 299.746 524.281 321.666 539.922 343.114C573.817 389.61 611.831 436.223 658.435 437.775C705.615 439.324 749.143 402.832 791.418 373.378C840.75 339.144 894.037 307.068 951.378 288.07C971.378 281.487 991.91 276.679 1012.43 274.216C1050.62 269.451 1089.26 271.93 1124.26 285.372C1166.22 301.502 1201.37 331.863 1234.81 357.785C1303.24 409.963 1365 449.24 1415.61 516.097C1430.73 536.039 1444.84 558.275 1457.61 584.149" stroke="#C6D2DC" stroke-width="0.552088" stroke-miterlimit="10"></path><path d="M-235.606 465.713C-206.867 370.994 -139.165 374.728 13.4931 212.487C23.0651 202.318 32.501 191.392 41.9461 181.152C74.0973 146.285 106.255 113.094 136.814 92.5934C227.265 31.9092 288.441 63.4539 352.134 112.968C397.371 148.144 441.333 202.915 492.171 268.893C507.878 289.284 523.204 310.635 538.785 331.606C572.558 377.051 610.033 422.891 655.459 426.96C701.44 431.061 743.991 399.932 785.434 375.202C833.799 346.473 885.911 319.581 941.999 304.324C961.562 299.047 981.647 295.349 1001.76 293.751C1039.16 290.6 1077.15 293.776 1111.9 306.628C1153.56 322.056 1189.08 349.974 1223.17 372.882C1292.92 418.942 1356.79 449.621 1410.08 508.419C1426 525.952 1440.97 545.817 1454.62 569.447" stroke="#C6D2DC" stroke-width="0.552088" stroke-miterlimit="10"></path><path d="M-235.101 454.179C-208.574 366.745 -142.869 382.205 11.9222 220.514C21.4087 210.607 30.7574 199.964 40.1012 189.959C71.9936 155.822 103.748 123.222 133.944 102.407C223.472 40.6704 285.321 64.4123 350.194 110.376C395.49 142.466 439.812 194.575 491.079 259.064C506.795 278.839 522.105 299.631 537.633 320.106C571.287 364.49 608.228 409.557 652.467 416.151C697.249 422.805 738.827 397.029 779.435 377.033C826.835 353.819 877.767 332.11 932.596 320.593C951.727 316.612 971.365 314.035 991.061 313.31C1027.67 311.772 1065.02 315.645 1099.52 327.918C1140.86 342.643 1176.77 368.119 1211.49 388.012C1282.57 427.963 1348.55 450.045 1404.53 500.766C1421.24 515.89 1437.07 533.384 1451.61 554.771" stroke="#C6D2DC" stroke-width="0.552088" stroke-miterlimit="10"></path><path d="M-234.596 442.655C-210.277 362.509 -146.58 389.625 10.349 228.562C19.7502 218.916 29.0149 208.545 38.2588 198.787C69.8938 165.393 101.249 133.373 131.079 112.232C219.689 49.4447 282.18 65.4493 348.263 107.785C393.6 136.828 438.299 186.237 490 249.228C505.722 268.387 521.014 288.618 536.49 308.607C570.022 351.941 606.431 396.225 649.48 405.342C693.06 414.559 733.665 394.136 773.44 378.865C819.874 361.167 869.631 344.641 923.205 336.854C941.9 334.179 961.091 332.712 980.376 332.853C1016.19 332.936 1052.89 337.506 1087.15 349.182C1128.19 363.195 1164.48 386.238 1199.83 403.125C1272.24 436.959 1340.32 450.452 1398.98 493.095C1416.51 505.811 1433.18 520.933 1448.61 540.075" stroke="#C6D2DC" stroke-width="0.552088" stroke-miterlimit="10"></path><path d="M-234.09 431.121C-211.981 358.26 -150.29 396.971 8.78204 236.6C18.0964 227.205 27.2739 217.117 36.4179 207.605C67.7954 174.952 98.7474 143.416 128.218 122.058C215.914 57.9222 279.022 66.5549 346.331 105.205C391.696 131.249 436.779 177.918 488.913 239.41C504.64 257.962 519.92 277.624 535.34 297.127C568.752 339.4 604.623 382.91 646.49 394.554C688.87 406.324 728.499 391.263 767.438 380.716C812.902 368.531 861.483 357.189 913.804 353.144C932.063 351.774 950.81 351.418 969.681 352.423C1004.71 354.121 1040.76 359.386 1074.77 370.484C1115.51 383.796 1152.17 404.396 1188.16 418.269C1261.89 445.994 1332.08 450.89 1393.43 485.464C1411.76 495.771 1429.29 508.512 1445.6 525.43" stroke="#C6D2DC" stroke-width="0.552088" stroke-miterlimit="10"></path><path d="M-233.588 419.598C-213.691 354.023 -154.004 404.254 7.20593 244.649C16.4348 235.515 25.5253 225.709 34.5723 216.434C65.6924 184.524 96.2446 153.569 125.35 131.884C212.124 66.6963 275.837 67.7294 344.389 102.625C389.767 125.717 435.242 169.617 487.822 229.583C503.554 247.528 518.822 266.622 534.19 285.639C567.48 326.861 602.819 369.589 643.501 383.758C684.682 398.081 723.335 388.383 761.441 382.559C805.939 375.89 853.341 369.731 904.411 369.417C922.241 369.345 940.537 370.098 958.993 371.978C993.235 375.288 1028.64 381.251 1062.39 391.768C1102.82 404.378 1139.87 422.534 1176.49 433.393C1251.56 455.001 1323.85 451.308 1387.89 477.806C1407.02 485.705 1425.4 496.073 1442.59 510.747" stroke="#C6D2DC" stroke-width="0.552088" stroke-miterlimit="10"></path><path d="M-233.081 408.064C-215.397 349.774 -157.709 411.442 5.63674 252.676C14.7788 243.793 23.7868 234.271 32.7294 225.241C63.5921 194.072 93.7402 163.697 122.487 141.699C208.334 75.4685 272.636 68.9716 342.459 100.024C387.841 120.206 433.717 161.296 486.74 219.745C502.477 237.085 517.736 255.599 533.045 274.14C566.215 314.301 601.016 356.255 640.516 372.95C680.495 389.835 718.173 385.48 755.449 384.392C798.981 383.238 845.203 382.262 895.015 385.688C912.409 386.92 930.262 388.785 948.3 391.539C981.756 396.463 1016.51 403.131 1050.02 413.051C1090.15 424.948 1127.57 440.671 1164.82 448.516C1241.21 464.015 1315.62 451.725 1382.34 470.154C1402.27 475.644 1421.5 483.642 1439.58 496.071" stroke="#C6D2DC" stroke-width="0.552088" stroke-miterlimit="10"></path><path d="M-232.577 396.529C-217.104 345.526 -161.42 418.553 4.06728 260.714C13.1256 252.072 22.0475 242.876 30.8905 234.06C61.5024 203.721 91.2441 173.839 119.623 151.525C204.548 84.2531 269.41 70.3028 340.525 97.4445C385.9 114.755 432.179 153.026 485.653 209.918C501.387 226.659 516.642 244.596 531.894 262.65C564.943 301.761 599.212 342.932 637.526 362.152C676.306 381.59 713.008 382.598 749.451 386.234C792.017 390.584 837.06 394.802 885.621 401.96C902.58 404.498 919.989 407.474 937.613 411.092C970.276 417.638 1004.39 424.993 1037.64 434.335C1077.47 445.53 1115.27 458.811 1153.16 463.65C1230.88 473.031 1307.38 452.153 1376.79 462.503C1397.52 465.585 1417.61 471.211 1436.58 481.397" stroke="#C6D2DC" stroke-width="0.552088" stroke-miterlimit="10"></path><path d="M-232.073 385.005C-218.807 341.289 -165.126 425.592 2.49311 268.762C11.4646 260.37 20.2963 251.466 29.0453 242.877C59.3954 213.279 88.7347 183.987 116.756 161.339C200.755 93.0245 266.168 71.7139 338.591 94.8431C383.952 109.334 430.641 144.734 484.568 200.08C500.303 216.224 515.549 233.583 530.748 251.141C563.677 289.19 597.405 329.598 634.541 351.334C672.121 373.325 707.847 379.695 743.458 388.056C785.058 397.921 828.922 407.322 876.232 418.211C892.758 422.045 909.716 426.141 926.929 430.624C958.803 438.783 992.27 446.846 1025.28 455.589C1064.8 466.081 1102.98 476.92 1141.5 478.744C1220.55 482.017 1299.16 452.541 1371.26 454.824C1392.79 455.497 1413.73 458.752 1433.58 466.703" stroke="#C6D2DC" stroke-width="0.552088" stroke-miterlimit="10"></path><path d="M-231.567 373.47C-220.513 337.04 -168.822 432.536 0.92112 276.798C9.80878 268.647 18.555 260.037 27.2041 251.695C57.2997 222.828 86.2361 194.127 113.893 171.165C196.967 101.807 262.915 73.2168 336.66 92.2627C382.003 103.975 429.099 136.482 483.483 190.252C499.217 205.809 514.457 222.579 529.605 239.652C562.411 276.65 595.608 316.275 631.555 340.547C667.935 365.09 702.685 376.823 737.459 389.907C778.089 405.287 820.778 419.871 866.834 434.501C882.924 439.641 899.439 444.848 916.238 450.195C947.326 459.968 980.143 468.726 1012.9 476.89C1052.11 486.67 1090.67 495.077 1129.83 493.885C1210.2 491.041 1290.92 452.966 1365.7 447.181C1388.03 445.445 1409.83 446.329 1430.57 452.037" stroke="#C6D2DC" stroke-width="0.552088" stroke-miterlimit="10"></path><path d="M-231.063 361.948C-222.221 332.804 -172.52 439.398 -0.648864 284.849C8.15061 276.937 16.8156 268.622 25.3603 260.525C55.1942 232.399 83.731 204.279 111.028 180.992C193.178 110.582 259.645 74.8133 334.72 89.6829C380.043 98.6585 427.542 128.239 482.392 180.435C498.12 195.404 513.359 211.587 528.45 228.173C561.137 264.111 593.795 302.962 628.56 329.76C663.739 356.866 697.518 373.942 731.457 391.761C771.121 412.655 812.635 432.424 857.436 450.784C873.09 457.23 889.158 463.546 905.55 469.76C935.849 481.145 968.018 490.601 1000.53 498.177C1039.44 507.256 1078.37 513.218 1118.16 509.022C1199.86 500.069 1282.69 453.397 1360.16 439.534C1383.29 435.389 1405.94 433.901 1427.57 437.365" stroke="#C6D2DC" stroke-width="0.552088" stroke-miterlimit="10"></path><path d="M-230.562 350.413C-223.931 328.554 -176.207 446.155 -2.22262 292.875C6.49605 285.195 15.0648 277.191 23.517 269.332C53.0964 241.938 81.2304 214.409 108.159 190.806C189.388 119.355 256.363 76.4897 332.784 87.0814C378.085 93.3621 425.983 119.994 481.308 170.587C497.035 184.969 512.266 200.553 527.302 216.663C559.867 251.55 591.994 289.619 625.569 318.94C659.548 348.599 692.351 371.038 725.458 393.581C764.157 419.991 804.49 444.942 848.033 467.043C863.254 474.784 878.876 482.222 894.85 489.309C924.356 502.317 955.884 512.47 988.143 519.457C1026.75 527.824 1066.06 531.353 1106.49 524.144C1189.52 509.082 1274.45 453.812 1354.61 431.882C1378.54 425.328 1402.05 421.46 1424.56 422.689" stroke="#C6D2DC" stroke-width="0.552088" stroke-miterlimit="10"></path><path d="M-230.051 338.879C-225.628 324.308 -179.88 452.818 -3.79044 300.912C4.84304 293.462 13.3276 285.763 21.6754 278.149C50.993 251.496 78.7246 224.557 105.3 200.621C185.603 128.127 253.08 78.2604 330.855 84.4909C376.133 88.1196 424.429 111.781 480.223 160.759C495.941 174.562 511.174 189.549 526.154 205.173C558.6 238.999 590.188 276.294 622.581 308.141C655.361 340.353 687.188 368.155 719.462 395.422C757.191 427.346 796.349 457.481 838.642 483.314C853.427 492.36 868.601 500.908 884.164 508.861C912.885 523.483 943.762 534.331 975.768 540.738C1014.07 548.403 1053.76 549.49 1094.82 539.265C1179.18 518.086 1266.22 454.228 1349.06 424.22C1373.8 415.258 1398.16 409.017 1421.55 408.012" stroke="#C6D2DC" stroke-width="0.552088" stroke-miterlimit="10"></path><path d="M-229.549 327.355C-227.337 320.069 -183.552 459.387 -5.36157 308.961C3.1911 301.741 11.5798 294.354 19.835 286.979C48.8938 261.056 76.227 234.709 102.435 210.457C181.812 136.921 249.791 80.1477 328.923 81.9115C374.187 82.9228 422.798 103.759 479.142 150.933C494.836 164.206 510.086 178.548 525.01 193.685C557.333 226.46 588.39 262.973 619.597 297.345C651.175 332.12 682.024 365.273 713.471 397.266C750.234 434.705 788.212 470.023 829.251 499.597C843.6 509.949 858.331 519.608 873.479 528.425C901.411 544.659 931.641 556.204 963.401 562.024C1001.4 568.987 1041.47 567.64 1083.16 554.401C1168.84 527.114 1257.99 454.658 1343.52 416.581C1369.05 405.21 1394.27 396.598 1418.54 393.349" stroke="#C6D2DC" stroke-width="0.552088" stroke-miterlimit="10"></path><path d="M-229.047 315.821C-229.047 315.821 -187.215 465.853 -6.93759 316.998C173.34 168.143 277.665 -20.2558 478.049 141.105C616.518 252.614 717.904 452.698 862.78 547.975C922.389 587.175 993.767 599.359 1071.49 569.523C1158.5 536.117 1249.75 455.073 1337.96 408.919C1364.31 395.141 1390.37 384.155 1415.54 378.664" stroke="#C6D2DC" stroke-width="0.552088" stroke-miterlimit="10"></path></g></svg>