<svg xmlns="http://www.w3.org/2000/svg" width="16" height="16" viewBox="0 0 16 16" fill="none"><path fill-rule="evenodd" clip-rule="evenodd" d="M9.15179 0C8.65645 0 8.18515 0.197174 7.8437 0.548242L0.533814 7.91584C-0.177938 8.6324 -0.177938 9.80583 0.533814 10.5224L5.47761 15.4662C6.19417 16.1779 7.3676 16.1779 8.08416 15.4662L15.4566 8.1563C15.8028 7.81004 16 7.33874 16 6.84821V1.84671C16 0.83198 15.168 0 14.1533 0H9.15179ZM9.15179 1.23114H14.1533C14.4995 1.23114 14.7689 1.50045 14.7689 1.84671V6.84821C14.7689 7.01172 14.7015 7.17042 14.5861 7.28584L7.21852 14.5957C6.97325 14.841 6.59333 14.8362 6.35287 14.5957L1.40908 9.64713C1.159 9.40186 1.159 9.02675 1.40427 8.78149L8.71416 1.41389C8.82958 1.29847 8.98828 1.23114 9.15179 1.23114ZM12.3066 3.07785C12.3066 2.7364 12.5807 2.46228 12.9222 2.46228C13.2636 2.46228 13.5377 2.7364 13.5377 3.07785C13.5377 3.4193 13.2636 3.69342 12.9222 3.69342C12.5807 3.69342 12.3066 3.4193 12.3066 3.07785Z" fill="#FDFDFE"></path></svg>